# 3ds Max Wavefront OBJ Exporter v0.97b - (c)2007 guruware
# File Created: 03.04.2016 13:48:59

mtllib phine_back.mtl

#
# object Box002
#

v  0.1199 3.4103 13.0058
v  0.4819 3.4103 13.4010
v  0.9278 3.4103 13.5973
v  -0.0599 3.4103 9.4481
v  2.2237 3.4103 13.5973
v  2.6696 3.4103 13.4010
v  3.2114 3.4103 12.5434
v  3.0317 3.4103 13.0058
v  3.2114 3.4103 9.7142
v  3.0317 3.4103 9.2518
v  2.2237 3.4103 8.6604
v  2.6696 3.4103 8.8566
v  0.6617 3.4103 8.6604
v  -0.0599 3.4103 12.5434
v  -6.6236 1.4984 18.4223
v  -7.6621 1.4984 17.3838
v  -8.3571 1.4984 15.7059
v  8.0972 1.4984 19.1173
v  -8.3571 1.4984 -15.0126
v  -7.6621 1.4984 -16.6905
v  -4.9457 1.4984 -18.4240
v  -6.6236 1.4984 -17.7290
v  8.0972 1.4984 -18.4240
v  9.7751 1.4984 -17.7290
v  11.5086 1.4984 -15.0126
v  10.8136 1.4984 -16.6905
v  11.5086 1.4984 15.7059
v  10.8136 1.4984 17.3838
v  9.7751 1.4984 18.4223
v  -4.9457 1.4984 19.1173
v  -5.2336 1.1911 20.5648
v  -5.2336 -0.0061 20.5648
v  8.3851 -0.0061 20.5648
v  8.3851 1.1911 20.5648
v  12.9561 1.1911 15.9939
v  12.9561 -0.0061 15.9939
v  12.9561 -0.0061 -15.3005
v  12.9561 1.1911 -15.3005
v  8.3851 1.1911 -19.8715
v  8.3851 -0.0061 -19.8715
v  -5.2336 -0.0061 -19.8715
v  -5.2336 1.1911 -19.8715
v  -9.8045 1.1911 -15.3005
v  -9.8045 -0.0061 -15.3005
v  -9.8045 -0.0061 15.9939
v  -9.8045 1.1911 15.9939
v  -7.4435 1.1911 19.6494
v  -8.8892 1.1911 18.2037
v  -8.8892 -0.0061 18.2037
v  -7.4435 -0.0061 19.6494
v  10.5950 -0.0061 19.6494
v  12.0407 -0.0061 18.2037
v  12.0407 1.1911 18.2037
v  10.5950 1.1911 19.6494
v  12.0407 -0.0061 -17.5104
v  10.5950 -0.0061 -18.9561
v  10.5950 1.1911 -18.9561
v  12.0407 1.1911 -17.5104
v  -7.4435 -0.0061 -18.9561
v  -8.8892 -0.0061 -17.5104
v  -8.8892 1.1911 -17.5104
v  -7.4435 1.1911 -18.9561
v  8.0663 2.5473 18.9621
v  -4.9148 2.5473 18.9621
v  9.6871 2.5473 18.2907
v  10.6820 2.5473 17.2959
v  11.3533 2.5473 15.6751
v  11.3533 2.5473 -14.9817
v  10.6820 2.5473 -16.6025
v  9.6871 2.5473 -17.5974
v  8.0663 2.5473 -18.2687
v  -4.9148 2.5473 -18.2687
v  -6.5356 2.5473 -17.5974
v  -7.5304 2.5473 -16.6025
v  -8.2018 2.5473 -14.9817
v  -8.2018 2.5473 15.6751
v  -7.5304 2.5473 17.2959
v  -6.5356 2.5473 18.2907
v  7.5881 3.4103 16.5579
v  -4.4366 3.4103 16.5579
v  8.3253 3.4103 16.2526
v  8.6439 3.4103 15.9340
v  8.9492 3.4103 15.1968
v  8.9492 3.4103 -14.5035
v  8.6439 3.4103 -15.2407
v  8.3253 3.4103 -15.5593
v  7.5881 3.4103 -15.8646
v  -4.4366 3.4103 -15.8646
v  -5.1738 3.4103 -15.5593
v  -5.4923 3.4103 -15.2407
v  -5.7977 3.4103 -14.5035
v  -5.7977 3.4103 15.1968
v  -5.4923 3.4103 15.9340
v  -5.1738 3.4103 16.2526
v  4.1564 3.4103 14.4532
v  -1.1375 3.4103 14.6776
v  4.0047 3.4103 7.7345
v  -0.7763 3.4103 7.6879
v  0.2314 3.4103 7.9001
v  2.9201 3.4103 7.9001
v  -0.7564 3.4103 13.3037
v  -0.7564 3.4103 8.9540
v  0.2627 3.6716 14.2751
v  2.8888 3.6716 14.2751
v  2.2550 3.6716 13.6797
v  0.8965 3.6716 13.6797
v  3.8323 3.6716 13.2695
v  3.8323 3.6716 8.9881
v  3.2870 3.6716 9.6801
v  3.2870 3.6716 12.5776
v  2.8888 3.6716 7.9826
v  0.2627 3.6716 7.9826
v  0.8965 3.6716 8.5779
v  2.2550 3.6716 8.5779
v  -0.6808 3.6716 8.9881
v  -0.6808 3.6716 13.2695
v  -0.1355 3.6716 12.5776
v  -0.1355 3.6716 9.6801
v  3.3661 3.4103 8.0964
v  3.7281 3.4103 8.4916
v  -0.5766 3.4103 8.4916
v  -0.2146 3.4103 8.0964
v  -0.2146 3.4103 14.1613
v  -0.5766 3.4103 13.7661
v  -0.5010 3.6716 13.7319
v  -0.1833 3.6716 14.0788
v  0.4506 3.6716 13.4835
v  0.0443 3.6716 13.0400
v  3.3348 3.6716 14.0788
v  3.6526 3.6716 13.7319
v  3.1072 3.6716 13.0400
v  2.7009 3.6716 13.4835
v  3.6526 3.6716 8.5257
v  3.3348 3.6716 8.1788
v  2.7009 3.6716 8.7742
v  3.1072 3.6716 9.2177
v  -0.1833 3.6716 8.1788
v  -0.5010 3.6716 8.5257
v  0.0443 3.6716 9.2177
v  0.4506 3.6716 8.7742
v  0.2314 3.4103 14.3575
v  2.9201 3.4103 14.3575
v  3.3661 3.4103 14.1613
v  3.7281 3.4103 13.7661
v  3.9079 3.4103 13.3037
v  3.9079 3.4103 8.9540
v  -0.0621 3.4179 9.4471
v  0.6606 3.4194 8.6575
v  -8.6968 -0.0061 -15.0802
v  -8.6968 -0.0061 15.7735
v  -7.9501 -0.0061 -16.8829
v  -6.8160 -0.0061 -18.0170
v  -5.0133 -0.0061 -18.7637
v  8.1648 -0.0061 -18.7637
v  9.9675 -0.0061 -18.0170
v  11.1016 -0.0061 -16.8829
v  11.8483 -0.0061 -15.0802
v  11.8483 -0.0061 15.7735
v  11.1016 -0.0061 17.5763
v  9.9675 -0.0061 18.7103
v  8.1648 -0.0061 19.4571
v  -5.0133 -0.0061 19.4571
v  -6.8160 -0.0061 18.7103
v  -7.9501 -0.0061 17.5763
# 164 vertices

vn 0.0000 1.0000 -0.0000
vn 0.0000 -1.0000 -0.0000
vn -0.1951 0.0000 0.9808
vn 0.1951 0.0000 0.9808
vn 0.9808 0.0000 0.1951
vn 0.9808 0.0000 -0.1951
vn 0.1951 0.0000 -0.9808
vn -0.1951 0.0000 -0.9808
vn -0.9808 0.0000 -0.1951
vn -0.9808 0.0000 0.1951
vn -0.5556 0.0000 0.8315
vn -0.8315 0.0000 0.5556
vn 0.5556 0.0000 0.8315
vn 0.8315 0.0000 0.5556
vn 0.8315 0.0000 -0.5556
vn 0.5556 0.0000 -0.8315
vn -0.5556 0.0000 -0.8315
vn -0.8315 0.0000 -0.5556
vn -0.1246 0.7695 0.6264
vn 0.1246 0.7695 0.6264
vn 0.0994 0.8606 0.4996
vn -0.0994 0.8606 0.4996
vn 0.3548 0.7695 0.5310
vn 0.2830 0.8606 0.4235
vn 0.5310 0.7695 0.3548
vn 0.4235 0.8606 0.2830
vn 0.6264 0.7695 0.1246
vn 0.4996 0.8606 0.0994
vn 0.6264 0.7695 -0.1246
vn 0.4996 0.8606 -0.0994
vn 0.5310 0.7695 -0.3548
vn 0.4235 0.8606 -0.2830
vn 0.3548 0.7695 -0.5310
vn 0.2830 0.8606 -0.4235
vn 0.1246 0.7695 -0.6264
vn 0.0994 0.8606 -0.4996
vn -0.1246 0.7695 -0.6264
vn -0.0994 0.8606 -0.4996
vn -0.3548 0.7695 -0.5310
vn -0.2830 0.8606 -0.4235
vn -0.5310 0.7695 -0.3548
vn -0.4235 0.8606 -0.2830
vn -0.6264 0.7695 -0.1246
vn -0.4996 0.8606 -0.0994
vn -0.6264 0.7695 0.1246
vn -0.4996 0.8606 0.0994
vn -0.5310 0.7695 0.3548
vn -0.4235 0.8606 0.2830
vn -0.3548 0.7695 0.5310
vn -0.2830 0.8606 0.4235
vn 0.0368 0.9820 0.1851
vn -0.0368 0.9820 0.1851
vn 0.1049 0.9820 0.1569
vn 0.1569 0.9820 0.1049
vn 0.1851 0.9820 0.0368
vn 0.1851 0.9820 -0.0368
vn 0.1569 0.9820 -0.1049
vn 0.1049 0.9820 -0.1569
vn 0.0368 0.9820 -0.1851
vn -0.0368 0.9820 -0.1851
vn -0.1049 0.9820 -0.1569
vn -0.1569 0.9820 -0.1049
vn -0.1851 0.9820 -0.0368
vn -0.1851 0.9820 0.0368
vn -0.1569 0.9820 0.1049
vn -0.1049 0.9820 0.1569
vn -0.2009 0.3166 0.9270
vn 0.2009 0.3166 0.9270
vn 0.1888 0.3161 0.9298
vn -0.1888 0.3161 0.9298
vn 0.5458 0.3109 0.7781
vn 0.8123 0.3002 0.5000
vn 0.8077 0.2999 0.5076
vn 0.5628 0.3093 0.7665
vn 0.9376 0.2951 0.1837
vn 0.9376 0.2951 -0.1837
vn 0.9410 0.2940 -0.1679
vn 0.9410 0.2940 0.1679
vn 0.8123 0.3002 -0.5000
vn 0.5458 0.3109 -0.7781
vn 0.5628 0.3093 -0.7665
vn 0.8077 0.2999 -0.5076
vn 0.2009 0.3166 -0.9270
vn -0.2009 0.3166 -0.9270
vn -0.1888 0.3161 -0.9298
vn 0.1888 0.3161 -0.9298
vn -0.5458 0.3109 -0.7781
vn -0.8123 0.3002 -0.5000
vn -0.8077 0.2999 -0.5076
vn -0.5628 0.3093 -0.7665
vn -0.9376 0.2951 -0.1837
vn -0.9376 0.2951 0.1837
vn -0.9410 0.2940 0.1679
vn -0.9410 0.2940 -0.1679
vn -0.8123 0.3002 0.5000
vn -0.5458 0.3109 0.7781
vn -0.5628 0.3093 0.7665
vn -0.8077 0.2999 0.5076
vn 0.8900 0.3020 0.3417
vn 0.9114 0.2085 0.3548
vn 0.9763 0.1937 0.0964
vn 0.3859 0.3194 0.8655
vn 0.3812 0.3195 0.8675
vn 0.7060 0.2887 0.6467
vn 0.7823 0.2041 0.5886
vn 0.0000 0.3010 0.9536
vn -0.9377 0.2951 -0.1837
vn 0.4013 -0.0877 0.9118
vn 0.9754 -0.2203 -0.0000
vn 0.9012 -0.2203 0.3733
vn 0.6897 -0.2203 0.6897
vn 0.3733 -0.2203 0.9012
vn 0.0000 -0.2203 0.9754
vn -0.3733 -0.2203 0.9012
vn -0.6897 -0.2203 0.6897
vn -0.9012 -0.2203 0.3733
vn -0.9754 -0.2203 -0.0000
vn -0.9012 -0.2203 -0.3733
vn -0.6897 -0.2203 -0.6897
vn -0.3733 -0.2203 -0.9012
vn 0.0000 -0.2203 -0.9754
vn 0.3733 -0.2203 -0.9012
vn 0.6897 -0.2203 -0.6897
vn 0.9012 -0.2203 -0.3733
# 124 vertex normals

vt 0.6865 0.2446 0.0000
vt 0.6945 0.2359 0.0000
vt 0.7042 0.2316 0.0000
vt 0.6826 0.3226 0.0000
vt 0.7326 0.2316 0.0000
vt 0.7424 0.2359 0.0000
vt 0.7543 0.2547 0.0000
vt 0.7503 0.2446 0.0000
vt 0.7543 0.3168 0.0000
vt 0.7503 0.3269 0.0000
vt 0.7326 0.3399 0.0000
vt 0.7424 0.3356 0.0000
vt 0.6984 0.3399 0.0000
vt 0.6826 0.2547 0.0000
vt 0.0861 0.2368 0.0000
vt 0.0671 0.2558 0.0000
vt 0.0544 0.2864 0.0000
vt 0.3550 0.2241 0.0000
vt 0.0544 0.8475 0.0000
vt 0.0671 0.8782 0.0000
vt 0.1168 0.9098 0.0000
vt 0.0861 0.8971 0.0000
vt 0.3550 0.9098 0.0000
vt 0.3856 0.8971 0.0000
vt 0.4173 0.8475 0.0000
vt 0.4046 0.8782 0.0000
vt 0.4173 0.2864 0.0000
vt 0.4046 0.2558 0.0000
vt 0.3856 0.2368 0.0000
vt 0.1168 0.2241 0.0000
vt 0.5692 0.0789 0.0000
vt 0.8677 0.0789 0.0000
vt 0.9679 0.1791 0.0000
vt 0.9679 0.8651 0.0000
vt 0.8677 0.9652 0.0000
vt 0.5692 0.9652 0.0000
vt 0.4690 0.8651 0.0000
vt 0.4690 0.1791 0.0000
vt 0.5207 0.0990 0.0000
vt 0.4890 0.1307 0.0000
vt 0.9161 0.0990 0.0000
vt 0.9478 0.1307 0.0000
vt 0.9478 0.9135 0.0000
vt 0.9161 0.9452 0.0000
vt 0.5207 0.9452 0.0000
vt 0.4890 0.9135 0.0000
vt 0.8607 0.1141 0.0000
vt 0.5762 0.1141 0.0000
vt 0.8962 0.1288 0.0000
vt 0.9180 0.1506 0.0000
vt 0.9327 0.1861 0.0000
vt 0.9327 0.8581 0.0000
vt 0.9180 0.8936 0.0000
vt 0.8962 0.9154 0.0000
vt 0.8607 0.9301 0.0000
vt 0.5762 0.9301 0.0000
vt 0.5406 0.9154 0.0000
vt 0.5188 0.8936 0.0000
vt 0.5041 0.8581 0.0000
vt 0.5041 0.1861 0.0000
vt 0.5188 0.1506 0.0000
vt 0.5406 0.1288 0.0000
vt 0.8502 0.1667 0.0000
vt 0.5866 0.1667 0.0000
vt 0.8664 0.1734 0.0000
vt 0.8734 0.1804 0.0000
vt 0.8800 0.1966 0.0000
vt 0.8800 0.8476 0.0000
vt 0.8734 0.8637 0.0000
vt 0.8664 0.8707 0.0000
vt 0.8502 0.8774 0.0000
vt 0.5866 0.8774 0.0000
vt 0.5705 0.8707 0.0000
vt 0.5635 0.8637 0.0000
vt 0.5568 0.8476 0.0000
vt 0.5568 0.1966 0.0000
vt 0.5635 0.1804 0.0000
vt 0.5705 0.1734 0.0000
vt 0.7750 0.2129 0.0000
vt 0.6590 0.2080 0.0000
vt 0.7717 0.3601 0.0000
vt 0.6669 0.3612 0.0000
vt 0.6890 0.3565 0.0000
vt 0.7479 0.3565 0.0000
vt 0.6673 0.2381 0.0000
vt 0.6673 0.3334 0.0000
vt 0.6896 0.2168 0.0000
vt 0.7472 0.2168 0.0000
vt 0.7333 0.2298 0.0000
vt 0.7035 0.2298 0.0000
vt 0.7679 0.2388 0.0000
vt 0.7679 0.3327 0.0000
vt 0.7559 0.3175 0.0000
vt 0.7559 0.2540 0.0000
vt 0.7472 0.3547 0.0000
vt 0.6896 0.3547 0.0000
vt 0.7035 0.3417 0.0000
vt 0.7333 0.3417 0.0000
vt 0.6690 0.3327 0.0000
vt 0.6690 0.2388 0.0000
vt 0.6809 0.2540 0.0000
vt 0.6809 0.3175 0.0000
vt 0.7577 0.3522 0.0000
vt 0.7656 0.3436 0.0000
vt 0.6713 0.3436 0.0000
vt 0.6792 0.3522 0.0000
vt 0.6792 0.2193 0.0000
vt 0.6713 0.2279 0.0000
vt 0.6729 0.2287 0.0000
vt 0.6799 0.2211 0.0000
vt 0.6938 0.2341 0.0000
vt 0.6849 0.2439 0.0000
vt 0.7570 0.2211 0.0000
vt 0.7640 0.2287 0.0000
vt 0.7520 0.2439 0.0000
vt 0.7431 0.2341 0.0000
vt 0.7640 0.3428 0.0000
vt 0.7570 0.3504 0.0000
vt 0.7431 0.3374 0.0000
vt 0.7520 0.3276 0.0000
vt 0.6799 0.3504 0.0000
vt 0.6729 0.3428 0.0000
vt 0.6849 0.3276 0.0000
vt 0.6938 0.3374 0.0000
vt 0.6890 0.2150 0.0000
vt 0.7479 0.2150 0.0000
vt 0.7577 0.2193 0.0000
vt 0.7656 0.2279 0.0000
vt 0.7695 0.2381 0.0000
vt 0.7695 0.3334 0.0000
vt 0.6825 0.3226 0.0000
vt 0.0209 0.2737 0.0000
vt 0.0209 0.8637 0.0000
vt 0.0418 0.8595 0.0000
vt 0.0418 0.2778 0.0000
vt 0.0382 0.9053 0.0000
vt 0.0559 0.8935 0.0000
vt 0.0655 0.9326 0.0000
vt 0.0773 0.9149 0.0000
vt 0.1071 0.9499 0.0000
vt 0.1113 0.9290 0.0000
vt 0.3639 0.9499 0.0000
vt 0.3597 0.9290 0.0000
vt 0.4055 0.9326 0.0000
vt 0.3937 0.9149 0.0000
vt 0.4328 0.9053 0.0000
vt 0.4151 0.8935 0.0000
vt 0.4501 0.8637 0.0000
vt 0.4292 0.8595 0.0000
vt 0.4501 0.2737 0.0000
vt 0.4292 0.2778 0.0000
vt 0.4328 0.2320 0.0000
vt 0.4151 0.2438 0.0000
vt 0.4055 0.2047 0.0000
vt 0.3937 0.2224 0.0000
vt 0.3639 0.1875 0.0000
vt 0.3597 0.2084 0.0000
vt 0.1071 0.1875 0.0000
vt 0.1113 0.2084 0.0000
vt 0.0655 0.2047 0.0000
vt 0.0773 0.2224 0.0000
vt 0.0382 0.2320 0.0000
vt 0.0559 0.2438 0.0000
vt 0.3850 0.0139 18.5341
vt 0.0079 0.0139 18.5341
vt 0.0054 0.0282 18.2912
vt 0.3876 0.0282 18.2912
vt 0.4933 0.8602 0.0000
vt 0.5096 0.8997 0.0000
vt 0.5159 0.8955 0.0000
vt 0.5007 0.8587 0.0000
vt 0.5345 0.9246 0.0000
vt 0.5387 0.9183 0.0000
vt 0.5740 0.9410 0.0000
vt 0.5755 0.9335 0.0000
vt 0.2752 0.0442 20.2144
vt 0.0866 0.0442 20.2144
vt 0.0860 0.0653 19.8713
vt 0.2759 0.0653 19.8713
vt 0.0592 0.0442 20.1902
vt 0.0600 0.0653 19.8484
vt 0.0375 0.0442 19.6876
vt 0.0398 0.0653 19.3805
vt 0.0141 0.0442 18.5341
vt 0.0179 0.0653 18.2912
vt 0.9873 0.0139 18.5341
vt 0.6102 0.0139 18.5341
vt 0.6077 0.0282 18.2912
vt 0.9899 0.0282 18.2912
vt 0.5944 0.0139 19.6876
vt 0.5929 0.0282 19.3805
vt 0.5798 0.0139 20.1902
vt 0.5793 0.0282 19.8484
vt 0.5613 0.0139 20.2144
vt 0.5617 0.0282 19.8713
vt 0.4340 0.0139 20.2144
vt 0.4335 0.0282 19.8713
vt 0.4154 0.0139 20.1902
vt 0.4160 0.0282 19.8484
vt 0.4008 0.0139 19.6876
vt 0.4024 0.0282 19.3805
# 201 texture coords

g Box002
usemtl wire_177088027
s 1
f 1/1/1 2/2/1 3/3/1 4/4/1 
f 3/3/1 5/5/1 6/6/1 7/7/1 
f 6/6/1 8/8/1 7/7/1 
f 7/7/1 9/9/1 10/10/1 11/11/1 
f 10/10/1 12/12/1 11/11/1 
f 3/3/1 7/7/1 11/11/1 4/4/1 
f 11/11/1 13/13/1 4/4/1 
f 14/14/1 1/1/1 4/4/1 
f 15/15/2 16/16/2 17/17/2 18/18/2 
f 17/17/2 19/19/2 20/20/2 21/21/2 
f 20/20/2 22/22/2 21/21/2 
f 21/21/2 23/23/2 24/24/2 25/25/2 
f 24/24/2 26/26/2 25/25/2 
f 17/17/2 21/21/2 25/25/2 18/18/2 
f 25/25/2 27/27/2 28/28/2 18/18/2 
f 28/28/2 29/29/2 18/18/2 
f 30/30/2 15/15/2 18/18/2 
s 2
f 31/31/3 32/31/3 33/32/4 34/32/4 
f 35/33/5 36/33/5 37/34/6 38/34/6 
f 39/35/7 40/35/7 41/36/8 42/36/8 
f 43/37/9 44/37/9 45/38/10 46/38/10 
f 47/39/11 48/40/12 49/40/12 50/39/11 
f 51/41/13 52/42/14 53/42/14 54/41/13 
f 55/43/15 56/44/16 57/44/16 58/43/15 
f 59/45/17 60/46/18 61/46/18 62/45/17 
f 31/31/3 47/39/11 50/39/11 32/31/3 
f 33/32/4 51/41/13 54/41/13 34/32/4 
f 37/34/6 55/43/15 58/43/15 38/34/6 
f 41/36/8 59/45/17 62/45/17 42/36/8 
f 48/40/12 46/38/10 45/38/10 49/40/12 
f 52/42/14 36/33/5 35/33/5 53/42/14 
f 56/44/16 40/35/7 39/35/7 57/44/16 
f 60/46/18 44/37/9 43/37/9 61/46/18 
s 1
f 31/31/19 34/32/20 63/47/21 64/48/22 
f 34/32/20 54/41/23 65/49/24 63/47/21 
f 54/41/23 53/42/25 66/50/26 65/49/24 
f 53/42/25 35/33/27 67/51/28 66/50/26 
f 35/33/27 38/34/29 68/52/30 67/51/28 
f 38/34/29 58/43/31 69/53/32 68/52/30 
f 58/43/31 57/44/33 70/54/34 69/53/32 
f 57/44/33 39/35/35 71/55/36 70/54/34 
f 39/35/35 42/36/37 72/56/38 71/55/36 
f 42/36/37 62/45/39 73/57/40 72/56/38 
f 62/45/39 61/46/41 74/58/42 73/57/40 
f 61/46/41 43/37/43 75/59/44 74/58/42 
f 43/37/43 46/38/45 76/60/46 75/59/44 
f 46/38/45 48/40/47 77/61/48 76/60/46 
f 48/40/47 47/39/49 78/62/50 77/61/48 
f 47/39/49 31/31/19 64/48/22 78/62/50 
f 64/48/22 63/47/21 79/63/51 80/64/52 
f 63/47/21 65/49/24 81/65/53 79/63/51 
f 65/49/24 66/50/26 82/66/54 81/65/53 
f 66/50/26 67/51/28 83/67/55 82/66/54 
f 67/51/28 68/52/30 84/68/56 83/67/55 
f 68/52/30 69/53/32 85/69/57 84/68/56 
f 69/53/32 70/54/34 86/70/58 85/69/57 
f 70/54/34 71/55/36 87/71/59 86/70/58 
f 71/55/36 72/56/38 88/72/60 87/71/59 
f 72/56/38 73/57/40 89/73/61 88/72/60 
f 73/57/40 74/58/42 90/74/62 89/73/61 
f 74/58/42 75/59/44 91/75/63 90/74/62 
f 75/59/44 76/60/46 92/76/64 91/75/63 
f 76/60/46 77/61/48 93/77/65 92/76/64 
f 77/61/48 78/62/50 94/78/66 93/77/65 
f 78/62/50 64/48/22 80/64/52 94/78/66 
f 80/64/52 79/63/51 95/79/1 96/80/1 
f 79/63/51 81/65/53 95/79/1 
f 81/65/53 82/66/54 95/79/1 
f 82/66/54 83/67/55 95/79/1 
f 83/67/55 84/68/56 97/81/1 95/79/1 
f 84/68/56 85/69/57 97/81/1 
f 85/69/57 86/70/58 97/81/1 
f 86/70/58 87/71/59 97/81/1 
f 88/72/60 98/82/1 99/83/1 87/71/59 
f 99/83/1 100/84/1 97/81/1 87/71/59 
f 88/72/60 89/73/61 98/82/1 
f 89/73/61 90/74/62 98/82/1 
f 90/74/62 91/75/63 98/82/1 
f 92/76/64 96/80/1 101/85/1 91/75/63 
f 101/85/1 102/86/1 98/82/1 91/75/63 
f 92/76/64 93/77/65 96/80/1 
f 93/77/65 94/78/66 96/80/1 
f 94/78/66 80/64/52 96/80/1 
f 103/87/1 104/88/1 105/89/1 106/90/1 
f 107/91/1 108/92/1 109/93/1 110/94/1 
f 111/95/1 112/96/1 113/97/1 114/98/1 
f 115/99/1 116/100/1 117/101/1 118/102/1 
f 119/103/1 120/104/1 97/81/1 
f 121/105/1 122/106/1 98/82/1 
f 123/107/1 124/108/1 96/80/1 
f 125/109/1 126/110/1 127/111/1 128/112/1 
f 129/113/1 130/114/1 131/115/1 132/116/1 
f 133/117/1 134/118/1 135/119/1 136/120/1 
f 137/121/1 138/122/1 139/123/1 140/124/1 
s 2
f 141/125/67 142/126/68 104/88/69 103/87/70 
f 143/127/71 144/128/72 130/114/73 129/113/74 
f 145/129/75 146/130/76 108/92/77 107/91/78 
f 120/104/79 119/103/80 134/118/81 133/117/82 
f 100/84/83 99/83/84 112/96/85 111/95/86 
f 122/106/87 121/105/88 138/122/89 137/121/90 
f 102/86/91 101/85/92 116/100/93 115/99/94 
f 124/108/95 123/107/96 126/110/97 125/109/98 
f 5/5/85 3/3/86 106/90/83 105/89/84 
f 2/2/81 1/1/82 128/112/79 127/111/80 
f 4/4/99 147/131/100 118/102/101 14/14/77 
f 14/14/77 118/102/101 117/101/76 
f 13/13/102 148/13/103 140/124/104 4/4/99 
f 140/124/104 139/123/105 147/131/100 4/4/99 
f 13/13/102 11/11/70 114/98/67 148/13/103 
f 114/98/67 113/97/106 148/13/103 
f 12/12/97 10/10/98 136/120/95 135/119/96 
f 9/9/93 7/7/94 110/94/107 109/93/92 
f 8/8/89 6/6/90 132/116/87 131/115/88 
s 1
f 146/130/1 145/129/1 95/79/1 97/81/1 
f 96/80/1 95/79/1 142/126/1 141/125/1 
f 95/79/1 145/129/1 144/128/1 
f 141/125/1 123/107/1 96/80/1 
f 143/127/1 142/126/1 95/79/1 
f 97/81/1 100/84/1 119/103/1 
f 146/130/1 97/81/1 120/104/1 
f 98/82/1 102/86/1 121/105/1 
f 98/82/1 122/106/1 99/83/1 
f 124/108/1 101/85/1 96/80/1 
s 2
f 147/131/100 139/123/105 118/102/101 
s 4
f 148/13/108 113/97/108 140/124/108 
s 1
f 116/100/1 125/109/1 128/112/1 117/101/1 
f 104/88/1 129/113/1 132/116/1 105/89/1 
f 108/92/1 133/117/1 136/120/1 109/93/1 
f 112/96/1 137/121/1 140/124/1 113/97/1 
f 126/110/1 103/87/1 106/90/1 127/111/1 
f 130/114/1 107/91/1 110/94/1 131/115/1 
f 134/118/1 111/95/1 114/98/1 135/119/1 
f 138/122/1 115/99/1 118/102/1 139/123/1 
s 2
f 123/107/96 141/125/67 103/87/70 126/110/97 
f 142/126/68 143/127/71 129/113/74 104/88/69 
f 144/128/72 145/129/75 107/91/78 130/114/73 
f 146/130/76 120/104/79 133/117/82 108/92/77 
f 119/103/80 100/84/83 111/95/86 134/118/81 
f 99/83/84 122/106/87 137/121/90 112/96/85 
f 121/105/88 102/86/91 115/99/94 138/122/89 
f 101/85/92 124/108/95 125/109/98 116/100/93 
f 6/6/90 5/5/85 105/89/84 132/116/87 
f 3/3/86 2/2/81 127/111/80 106/90/83 
f 1/1/82 14/14/77 117/101/76 128/112/79 
f 11/11/70 12/12/97 135/119/96 114/98/67 
f 10/10/98 9/9/93 109/93/92 136/120/95 
f 7/7/94 8/8/89 131/115/88 110/94/107 
s off
f 45/132/2 44/133/2 149/134/2 150/135/2 
f 44/133/2 60/136/2 151/137/2 149/134/2 
f 60/136/2 59/138/2 152/139/2 151/137/2 
f 59/138/2 41/140/2 153/141/2 152/139/2 
f 41/140/2 40/142/2 154/143/2 153/141/2 
f 40/142/2 56/144/2 155/145/2 154/143/2 
f 56/144/2 55/146/2 156/147/2 155/145/2 
f 55/146/2 37/148/2 157/149/2 156/147/2 
f 37/148/2 36/150/2 158/151/2 157/149/2 
f 36/150/2 52/152/2 159/153/2 158/151/2 
f 52/152/2 51/154/2 160/155/2 159/153/2 
f 51/154/2 33/156/2 161/157/2 160/155/2 
f 33/156/2 32/158/2 162/159/2 161/157/2 
f 32/158/2 50/160/2 163/161/2 162/159/2 
f 50/160/2 49/162/2 164/163/2 163/161/2 
f 49/162/2 45/132/2 150/135/2 164/163/2 
f 150/164/109 149/165/109 19/166/109 17/167/109 
f 149/168/110 151/169/110 20/170/110 19/171/110 
f 151/169/111 152/172/111 22/173/111 20/170/111 
f 152/172/112 153/174/112 21/175/112 22/173/112 
f 153/176/113 154/177/113 23/178/113 21/179/113 
f 154/177/114 155/180/114 24/181/114 23/178/114 
f 155/180/115 156/182/115 26/183/115 24/181/115 
f 156/182/116 157/184/116 25/185/116 26/183/116 
f 157/186/117 158/187/117 27/188/117 25/189/117 
f 158/187/118 159/190/118 28/191/118 27/188/118 
f 159/190/119 160/192/119 29/193/119 28/191/119 
f 160/192/120 161/194/120 18/195/120 29/193/120 
f 161/194/121 162/196/121 30/197/121 18/195/121 
f 162/196/122 163/198/122 15/199/122 30/197/122 
f 163/198/123 164/200/123 16/201/123 15/199/123 
f 164/200/124 150/164/124 17/167/124 16/201/124 
f 143/127/1 95/79/1 144/128/1 
# 144 polygons - 36 triangles

#
# object Box003
#

