# 3ds Max Wavefront OBJ Exporter v0.97b - (c)2007 guruware
# File Created: 05.04.2016 22:14:36

mtllib Phone_board2.mtl

#
# object Object003
#

v  -9.0592 -4.2920 -16.7988
v  6.7430 -4.2920 -16.7988
v  7.1495 -4.2920 -16.3923
v  -9.4657 -4.2920 -16.3923
v  7.9061 -4.2920 15.2590
v  -10.2223 -4.2920 15.2590
v  -10.2223 -4.2920 -14.5657
v  7.9061 -4.2920 -14.5657
v  7.8012 -4.2920 -15.0931
v  -10.1174 -4.2920 -15.0931
v  -9.7644 -4.2920 -15.9452
v  7.4482 -4.2920 -15.9452
v  -7.5068 -4.2920 -17.5553
v  5.1906 -4.2920 -17.5553
v  6.2960 -4.2920 -17.0975
v  -8.6121 -4.2920 -17.0975
v  6.7430 -4.2920 17.4921
v  -9.0592 -4.2920 17.4921
v  -9.4657 -4.2920 17.0856
v  7.1495 -4.2920 17.0856
v  -10.1174 -4.2920 15.7864
v  7.8012 -4.2920 15.7864
v  7.4482 -4.2920 16.6385
v  -9.7644 -4.2920 16.6385
v  5.1906 -4.2920 18.2487
v  -7.5068 -4.2920 18.2487
v  -8.6121 -4.2920 17.7908
v  6.2960 -4.2920 17.7908
v  -7.6246 -3.5173 18.8410
v  -8.9476 -3.5173 18.2929
v  -8.9476 -4.2920 18.2929
v  -7.6246 -4.2920 18.8410
v  -9.3947 -3.5173 17.9942
v  -9.9678 -3.5173 17.4211
v  -9.9678 -4.2920 17.4211
v  -9.3947 -4.2920 17.9942
v  -10.2665 -3.5173 16.9740
v  -10.7097 -3.5173 15.9042
v  -10.7097 -4.2920 15.9042
v  -10.2665 -4.2920 16.9740
v  -10.8146 -3.5173 15.3769
v  -10.8146 -3.5173 -14.6835
v  -10.8146 -4.2920 -14.6835
v  -10.8146 -4.2920 15.3769
v  -10.7097 -3.5173 -15.2109
v  -10.2665 -3.5173 -16.2807
v  -10.2665 -4.2920 -16.2807
v  -10.7097 -4.2920 -15.2109
v  -9.9678 -3.5173 -16.7278
v  -9.3947 -3.5173 -17.3009
v  -9.3947 -4.2920 -17.3009
v  -9.9678 -4.2920 -16.7278
v  -8.9476 -3.5173 -17.5996
v  -7.6246 -3.5173 -18.1476
v  -7.6246 -4.2920 -18.1476
v  -8.9476 -4.2920 -17.5996
v  5.3084 -3.5173 -18.1476
v  5.3084 -4.2920 -18.1476
v  6.6315 -3.5173 -17.5996
v  6.6315 -4.2920 -17.5996
v  7.0785 -3.5173 -17.3009
v  7.6516 -3.5173 -16.7278
v  7.6516 -4.2920 -16.7278
v  7.0785 -4.2920 -17.3009
v  7.9504 -3.5173 -16.2807
v  8.3935 -3.5173 -15.2109
v  8.3935 -4.2920 -15.2109
v  7.9504 -4.2920 -16.2807
v  8.4984 -3.5173 -14.6835
v  8.4984 -3.5173 15.3769
v  8.4984 -4.2920 15.3769
v  8.4984 -4.2920 -14.6835
v  8.3935 -3.5173 15.9042
v  7.9504 -3.5173 16.9740
v  7.9504 -4.2920 16.9740
v  8.3935 -4.2920 15.9042
v  7.6516 -3.5173 17.4211
v  7.0785 -3.5173 17.9942
v  7.0785 -4.2920 17.9942
v  7.6516 -4.2920 17.4211
v  6.6315 -3.5173 18.2929
v  5.3084 -3.5173 18.8410
v  5.3084 -4.2920 18.8410
v  6.6315 -4.2920 18.2929
# 84 vertices

vn 0.0000 -1.0000 -0.0000
vn -0.1951 0.0000 0.9808
vn -0.4714 0.0000 0.8819
vn -0.6344 0.0000 0.7730
vn -0.7730 0.0000 0.6344
vn -0.8819 0.0000 0.4714
vn -0.9569 0.0000 0.2903
vn -0.9952 0.0000 0.0980
vn -0.9952 0.0000 -0.0980
vn -0.9569 0.0000 -0.2903
vn -0.8819 0.0000 -0.4714
vn -0.7730 0.0000 -0.6344
vn -0.6344 0.0000 -0.7730
vn -0.4714 0.0000 -0.8819
vn -0.1951 0.0000 -0.9808
vn 0.1951 0.0000 -0.9808
vn 0.4714 0.0000 -0.8819
vn 0.6344 0.0000 -0.7730
vn 0.7730 0.0000 -0.6344
vn 0.8819 0.0000 -0.4714
vn 0.9569 0.0000 -0.2903
vn 0.9952 0.0000 -0.0980
vn 0.9952 0.0000 0.0980
vn 0.9569 0.0000 0.2903
vn 0.8819 0.0000 0.4714
vn 0.7730 0.0000 0.6344
vn 0.6344 0.0000 0.7730
vn 0.4714 0.0000 0.8819
vn 0.1951 0.0000 0.9808
vn 0.0000 1.0000 -0.0000
# 30 vertex normals

vt 0.6246 0.4859 0.0000
vt 0.8294 0.4859 0.0000
vt 0.8347 0.4807 0.0000
vt 0.6193 0.4807 0.0000
vt 0.8445 0.0704 0.0000
vt 0.6095 0.0704 0.0000
vt 0.6095 0.4570 0.0000
vt 0.8445 0.4570 0.0000
vt 0.8431 0.4638 0.0000
vt 0.6109 0.4638 0.0000
vt 0.6155 0.4749 0.0000
vt 0.8386 0.4749 0.0000
vt 0.6447 0.4958 0.0000
vt 0.8093 0.4958 0.0000
vt 0.8236 0.4898 0.0000
vt 0.6304 0.4898 0.0000
vt 0.8294 0.0415 0.0000
vt 0.6246 0.0415 0.0000
vt 0.6193 0.0468 0.0000
vt 0.8347 0.0468 0.0000
vt 0.6109 0.0636 0.0000
vt 0.8431 0.0636 0.0000
vt 0.8386 0.0526 0.0000
vt 0.6155 0.0526 0.0000
vt 0.8093 0.0317 0.0000
vt 0.6447 0.0317 0.0000
vt 0.6304 0.0376 0.0000
vt 0.8236 0.0376 0.0000
vt 0.9745 0.5272 19.5922
vt 0.9746 0.5164 19.5639
vt 0.9804 0.5165 19.5639
vt 0.9803 0.5272 19.5922
vt 0.9746 0.5124 19.4751
vt 0.9746 0.5066 19.2132
vt 0.9805 0.5067 19.2132
vt 0.9804 0.5125 19.4751
vt 0.9747 0.5030 18.9587
vt 0.9747 0.4957 18.2557
vt 0.9806 0.4957 18.2557
vt 0.9805 0.5030 18.9587
vt 0.9748 0.4927 17.8649
vt 0.9774 0.1990 17.8649
vt 0.9832 0.1990 17.8649
vt 0.9806 0.4927 17.8649
vt 0.9775 0.1960 18.2557
vt 0.9775 0.1887 18.9587
vt 0.9833 0.1887 18.9587
vt 0.9833 0.1960 18.2557
vt 0.9776 0.1850 19.2132
vt 0.9776 0.1792 19.4751
vt 0.9834 0.1793 19.4751
vt 0.9834 0.1851 19.2132
vt 0.9776 0.1752 19.5639
vt 0.9777 0.1645 19.5922
vt 0.9836 0.1645 19.5922
vt 0.9835 0.1753 19.5639
vt 0.9786 0.0657 19.5922
vt 0.9844 0.0657 19.5922
vt 0.9787 0.0549 19.5639
vt 0.9845 0.0550 19.5639
vt 0.9788 0.0509 19.4751
vt 0.9788 0.0451 19.2132
vt 0.9846 0.0452 19.2132
vt 0.9846 0.0510 19.4751
vt 0.9789 0.0415 18.9587
vt 0.9789 0.0342 18.2557
vt 0.9847 0.0342 18.2557
vt 0.9847 0.0415 18.9587
vt 0.9706 0.9542 17.8649
vt 0.9733 0.6605 17.8649
vt 0.9791 0.6605 17.8649
vt 0.9764 0.9542 17.8649
vt 0.9733 0.6575 18.2557
vt 0.9733 0.6502 18.9587
vt 0.9792 0.6502 18.9587
vt 0.9791 0.6575 18.2557
vt 0.9734 0.6465 19.2132
vt 0.9734 0.6407 19.4751
vt 0.9792 0.6408 19.4751
vt 0.9792 0.6466 19.2132
vt 0.9735 0.6367 19.5639
vt 0.9736 0.6260 19.5922
vt 0.9794 0.6260 19.5922
vt 0.9793 0.6368 19.5639
vt 0.8623 0.8446 0.0000
vt 0.8672 0.8467 0.0000
vt 0.8689 0.8478 0.0000
vt 0.8722 0.8517 0.0000
vt 0.8711 0.8500 0.0000
vt 0.8739 0.8557 0.0000
vt 0.8743 0.8577 0.0000
vt 0.8739 0.9729 0.0000
vt 0.8743 0.9709 0.0000
vt 0.8722 0.9769 0.0000
vt 0.8711 0.9786 0.0000
vt 0.8672 0.9819 0.0000
vt 0.8689 0.9807 0.0000
vt 0.8036 0.9769 0.0000
vt 0.8623 0.9839 0.0000
vt 0.8135 0.9839 0.0000
vt 0.8086 0.9819 0.0000
vt 0.8069 0.9807 0.0000
vt 0.8047 0.9786 0.0000
vt 0.8019 0.9729 0.0000
vt 0.8015 0.9709 0.0000
vt 0.8019 0.8557 0.0000
vt 0.8015 0.8577 0.0000
vt 0.8036 0.8517 0.0000
vt 0.8047 0.8500 0.0000
vt 0.8086 0.8467 0.0000
vt 0.8069 0.8478 0.0000
vt 0.8135 0.8446 0.0000
vt 0.6432 0.0240 0.0000
vt 0.6260 0.0311 0.0000
vt 0.6202 0.0350 0.0000
vt 0.6128 0.0424 0.0000
vt 0.6089 0.0482 0.0000
vt 0.6032 0.0621 0.0000
vt 0.6018 0.0689 0.0000
vt 0.6018 0.4585 0.0000
vt 0.6032 0.4654 0.0000
vt 0.6089 0.4792 0.0000
vt 0.6128 0.4850 0.0000
vt 0.6202 0.4925 0.0000
vt 0.6260 0.4963 0.0000
vt 0.6432 0.5034 0.0000
vt 0.8108 0.5034 0.0000
vt 0.8280 0.4963 0.0000
vt 0.8338 0.4925 0.0000
vt 0.8412 0.4850 0.0000
vt 0.8451 0.4792 0.0000
vt 0.8508 0.4654 0.0000
vt 0.8522 0.4585 0.0000
vt 0.8522 0.0689 0.0000
vt 0.8508 0.0621 0.0000
vt 0.8451 0.0482 0.0000
vt 0.8412 0.0424 0.0000
vt 0.8338 0.0350 0.0000
vt 0.8280 0.0311 0.0000
vt 0.8108 0.0240 0.0000
vt 0.9804 0.5090 18.6871
vt 0.9805 0.5052 18.4253
vt 0.9792 0.6480 18.4253
vt 0.9792 0.6443 18.6871
vt 0.9790 0.0312 17.8649
vt 0.9848 0.0312 17.8649
# 146 texture coords

g Object003
usemtl 01___Default
s 1
f 1/1/1 2/2/1 3/3/1 4/4/1 
f 5/5/1 6/6/1 7/7/1 8/8/1 
f 9/9/1 10/10/1 11/11/1 12/12/1 
f 13/13/1 14/14/1 15/15/1 16/16/1 
f 17/17/1 18/18/1 19/19/1 20/20/1 
f 21/21/1 22/22/1 23/23/1 24/24/1 
f 25/25/1 26/26/1 27/27/1 28/28/1 
s 2
f 29/29/2 30/30/3 31/31/3 32/32/2 
f 33/33/4 34/34/5 35/35/5 36/36/4 
f 37/37/6 38/38/7 39/39/7 40/40/6 
f 41/41/8 42/42/9 43/43/9 44/44/8 
f 45/45/10 46/46/11 47/47/11 48/48/10 
f 49/49/12 50/50/13 51/51/13 52/52/12 
f 53/53/14 54/54/15 55/55/15 56/56/14 
f 54/54/15 57/57/16 58/58/16 55/55/15 
f 57/57/16 59/59/17 60/60/17 58/58/16 
f 61/61/18 62/62/19 63/63/19 64/64/18 
f 65/65/20 66/66/21 67/67/21 68/68/20 
f 69/69/22 70/70/23 71/71/23 72/72/22 
f 73/73/24 74/74/25 75/75/25 76/76/24 
f 77/77/26 78/78/27 79/79/27 80/80/26 
f 81/81/28 82/82/29 83/83/29 84/84/28 
f 82/82/29 29/29/2 32/32/2 83/83/29 
s 1
f 82/85/30 81/86/30 78/87/30 74/88/30 
f 78/87/30 77/89/30 74/88/30 
f 74/88/30 73/90/30 70/91/30 66/92/30 
f 70/91/30 69/93/30 66/92/30 
f 66/92/30 65/94/30 62/95/30 59/96/30 
f 62/95/30 61/97/30 59/96/30 
f 74/88/30 66/92/30 59/96/30 46/98/30 
f 59/96/30 57/99/30 54/100/30 46/98/30 
f 54/100/30 53/101/30 50/102/30 46/98/30 
f 50/102/30 49/103/30 46/98/30 
f 46/98/30 45/104/30 42/105/30 38/106/30 
f 42/105/30 41/107/30 38/106/30 
f 38/106/30 37/108/30 34/109/30 30/110/30 
f 34/109/30 33/111/30 30/110/30 
f 46/98/30 38/106/30 30/110/30 74/88/30 
f 82/85/30 74/88/30 30/110/30 29/112/30 
f 32/113/1 31/114/1 27/27/1 26/26/1 
f 36/115/1 35/116/1 19/19/1 18/18/1 
f 40/117/1 39/118/1 21/21/1 24/24/1 
f 44/119/1 43/120/1 7/7/1 6/6/1 
f 48/121/1 47/122/1 11/11/1 10/10/1 
f 52/123/1 51/124/1 1/1/1 4/4/1 
f 56/125/1 55/126/1 13/13/1 16/16/1 
f 55/126/1 58/127/1 14/14/1 13/13/1 
f 58/127/1 60/128/1 15/15/1 14/14/1 
f 64/129/1 63/130/1 3/3/1 2/2/1 
f 68/131/1 67/132/1 9/9/1 12/12/1 
f 72/133/1 71/134/1 5/5/1 8/8/1 
f 76/135/1 75/136/1 23/23/1 22/22/1 
f 80/137/1 79/138/1 17/17/1 20/20/1 
f 84/139/1 83/140/1 25/25/1 28/28/1 
f 83/140/1 32/113/1 26/26/1 25/25/1 
f 9/9/1 8/8/1 7/7/1 10/10/1 
f 3/3/1 12/12/1 11/11/1 4/4/1 
f 1/1/1 16/16/1 15/15/1 2/2/1 
f 5/5/1 22/22/1 21/21/1 6/6/1 
f 19/141/1 24/142/1 23/143/1 20/144/1 
f 17/17/1 28/28/1 27/27/1 18/18/1 
s 2
f 30/30/3 33/33/4 36/36/4 31/31/3 
f 34/34/5 37/37/6 40/40/6 35/35/5 
f 38/38/7 41/41/8 44/44/8 39/39/7 
f 42/42/9 45/45/10 48/48/10 43/43/9 
f 46/46/11 49/49/12 52/52/12 47/47/11 
f 50/50/13 53/53/14 56/56/14 51/51/13 
f 59/59/17 61/61/18 64/64/18 60/60/17 
f 62/62/19 65/65/20 68/68/20 63/63/19 
f 66/66/21 69/145/22 72/146/22 67/67/21 
f 70/70/23 73/73/24 76/76/24 71/71/23 
f 74/74/25 77/77/26 80/80/26 75/75/25 
f 78/78/27 81/81/28 84/84/28 79/79/27 
s 1
f 31/114/1 36/115/1 18/18/1 27/27/1 
f 35/35/1 40/40/1 24/142/1 19/141/1 
f 39/118/1 44/119/1 6/6/1 21/21/1 
f 43/120/1 48/121/1 10/10/1 7/7/1 
f 47/122/1 52/123/1 4/4/1 11/11/1 
f 51/124/1 56/125/1 16/16/1 1/1/1 
f 60/128/1 64/129/1 2/2/1 15/15/1 
f 63/130/1 68/131/1 12/12/1 3/3/1 
f 67/132/1 72/133/1 8/8/1 9/9/1 
f 71/134/1 76/135/1 22/22/1 5/5/1 
f 75/75/1 80/80/1 20/144/1 23/143/1 
f 79/138/1 84/139/1 28/28/1 17/17/1 
# 79 polygons - 6 triangles

