# 3ds Max Wavefront OBJ Exporter v0.97b - (c)2007 guruware
# File Created: 19.04.2016 19:22:36

mtllib table.mtl

#
# object Object003
#

v  -31.4368 1.2927 4.0732
v  -31.7769 1.2927 3.7645
v  -31.7769 25.6949 3.7645
v  -31.4368 25.6949 4.0732
v  -32.2020 1.2927 3.5907
v  -32.2020 25.6949 3.5907
v  -32.6610 1.2927 3.5728
v  -32.6610 25.6949 3.5728
v  -33.0983 1.2927 3.7130
v  -33.0983 25.6949 3.7130
v  -33.4614 1.2927 3.9943
v  -33.4614 25.6949 3.9943
v  -33.7063 1.2927 4.3829
v  -33.7063 25.6949 4.3829
v  -33.8036 1.2927 4.8317
v  -33.8036 25.6949 4.8317
v  -33.7415 1.2927 5.2868
v  -33.7415 25.6949 5.2868
v  -33.5275 1.2927 5.6932
v  -33.5275 25.6949 5.6932
v  -33.1874 1.2927 6.0019
v  -33.1874 25.6949 6.0019
v  -32.7623 1.2927 6.1756
v  -32.7623 25.6949 6.1756
v  -32.3034 1.2927 6.1935
v  -32.3034 25.6949 6.1935
v  -31.8660 1.2927 6.0533
v  -31.8660 25.6949 6.0533
v  -31.5029 1.2927 5.7720
v  -31.5029 25.6949 5.7720
v  -31.2580 1.2927 5.3835
v  -31.2580 25.6949 5.3835
v  -31.1607 1.2927 4.9346
v  -31.1607 25.6949 4.9346
v  -31.2228 1.2927 4.4795
v  -31.2228 25.6949 4.4795
v  -34.4222 0.8410 6.6648
v  -34.4222 0.8410 2.3870
v  -30.4898 0.8410 2.3870
v  -30.4898 0.8410 6.6648
v  -34.4222 0.8410 13.8182
v  -30.4898 0.8410 13.8182
v  -30.4898 1.6837 13.8182
v  -34.4222 1.6837 13.8182
v  -30.4898 0.8410 -4.7664
v  -34.4222 0.8410 -4.7664
v  -34.4222 1.6837 -4.7664
v  -30.4898 1.6837 -4.7664
v  -34.4222 3.5229 6.6648
v  -34.4222 3.5229 2.3870
v  -30.4898 3.5229 6.6648
v  -30.4898 3.5229 11.5835
v  -30.4898 3.1759 12.6011
v  -30.4898 2.5212 13.3967
v  -34.4222 3.5229 11.5835
v  -34.4222 2.5212 13.3967
v  -34.4222 3.1759 12.6011
v  -34.4222 3.5229 -2.5317
v  -34.4222 3.1760 -3.5493
v  -34.4222 2.5212 -4.3448
v  -30.4898 3.5229 2.3870
v  -30.4898 3.5229 -2.5317
v  -30.4898 2.5212 -4.3448
v  -30.4898 3.1760 -3.5493
v  34.3176 1.2927 4.0732
v  33.9775 1.2927 3.7645
v  33.9775 25.6949 3.7645
v  34.3176 25.6949 4.0732
v  33.5524 1.2927 3.5907
v  33.5524 25.6949 3.5907
v  33.0934 1.2927 3.5728
v  33.0934 25.6949 3.5728
v  32.6561 1.2927 3.7130
v  32.6561 25.6949 3.7130
v  32.2930 1.2927 3.9943
v  32.2930 25.6949 3.9943
v  32.0481 1.2927 4.3829
v  32.0481 25.6949 4.3829
v  31.9508 1.2927 4.8317
v  31.9508 25.6949 4.8317
v  32.0129 1.2927 5.2868
v  32.0129 25.6949 5.2868
v  32.2269 1.2927 5.6932
v  32.2269 25.6949 5.6932
v  32.5670 1.2927 6.0019
v  32.5670 25.6949 6.0019
v  32.9921 1.2927 6.1756
v  32.9921 25.6949 6.1756
v  33.4510 1.2927 6.1935
v  33.4510 25.6949 6.1935
v  33.8884 1.2927 6.0533
v  33.8884 25.6949 6.0533
v  34.2515 1.2927 5.7720
v  34.2515 25.6949 5.7720
v  34.4964 1.2927 5.3835
v  34.4964 25.6949 5.3835
v  34.5937 1.2927 4.9346
v  34.5937 25.6949 4.9346
v  34.5316 1.2927 4.4795
v  34.5316 25.6949 4.4795
v  31.3321 0.8410 6.6648
v  31.3321 0.8410 2.3870
v  35.2646 0.8410 2.3870
v  35.2646 0.8410 6.6648
v  31.3321 0.8410 13.8182
v  35.2646 0.8410 13.8182
v  35.2646 1.6837 13.8182
v  31.3321 1.6837 13.8182
v  35.2646 3.5229 2.3870
v  35.2646 3.5229 6.6648
v  35.2646 0.8410 -4.7664
v  31.3321 0.8410 -4.7664
v  31.3321 1.6837 -4.7664
v  35.2646 1.6837 -4.7664
v  35.2646 3.5229 11.5835
v  35.2646 3.1759 12.6011
v  35.2646 2.5212 13.3967
v  31.3321 3.5229 6.6648
v  31.3321 3.5229 11.5835
v  31.3321 2.5212 13.3967
v  31.3321 3.1759 12.6011
v  31.3321 3.5229 2.3870
v  31.3321 3.5229 -2.5317
v  31.3321 3.1760 -3.5493
v  31.3321 2.5212 -4.3448
v  35.2646 3.5229 -2.5317
v  35.2646 2.5212 -4.3448
v  35.2646 3.1760 -3.5493
v  -46.0569 24.9883 -2.4792
v  46.8132 24.9883 -2.4792
v  46.8132 24.9883 20.3647
v  -46.0569 24.9883 20.3647
v  46.8132 27.2673 19.3551
v  46.8132 27.2673 -5.0039
v  -46.0569 27.2673 -5.0039
v  -46.0569 27.2673 19.3551
v  46.8132 26.2576 20.3647
v  -46.0569 26.2576 20.3647
v  46.8132 24.9883 -8.9223
v  -46.0569 24.9883 -8.9223
v  -46.0569 27.2673 -8.9223
v  46.8132 27.2673 -8.9223
v  46.8132 31.8386 -8.9223
v  -46.0569 31.8386 -8.9223
v  -46.0569 31.8386 -6.3465
v  46.8132 31.8386 -6.3465
v  -46.0569 30.4960 -5.0039
v  46.8132 30.4960 -5.0039
v  -40.8903 27.6264 -0.9474
v  -22.5620 27.6264 -1.0352
v  -22.3132 27.6264 -0.9542
v  -22.2286 27.6264 -0.7066
v  -22.0940 27.6264 17.5465
v  -22.1749 27.6264 17.7954
v  -22.4226 27.6264 17.8800
v  -41.0843 27.6264 17.6391
v  -40.7509 27.6264 17.9677
v  -40.9997 27.6264 17.8868
v  -41.1379 27.6264 -0.8629
v  -41.2189 27.6264 -0.6140
v  -40.0040 28.9254 0.5831
v  -39.8872 28.9254 16.4242
v  -39.8026 28.9254 16.6719
v  -39.5538 28.9254 16.7528
v  -23.6375 28.9254 16.6829
v  -23.3898 28.9254 16.5983
v  -23.3089 28.9254 16.3494
v  -23.7591 28.9254 0.1797
v  -23.4257 28.9254 0.5083
v  -23.5103 28.9254 0.2606
v  -39.9231 28.9254 0.3342
v  -39.6754 28.9254 0.2497
v  -41.0843 30.8208 17.6391
v  -41.2189 30.8208 -0.6140
v  -22.4226 30.8208 17.8800
v  -40.7509 30.8208 17.9677
v  -22.2286 30.8208 -0.7066
v  -22.0940 30.8208 17.5465
v  -40.8903 30.8208 -0.9474
v  -22.5620 30.8208 -1.0352
v  -39.8872 30.8208 16.4242
v  -40.0040 30.8208 0.5831
v  -23.6375 30.8208 16.6829
v  -39.5538 30.8208 16.7528
v  -23.4257 30.8208 0.5083
v  -23.3089 30.8208 16.3494
v  -39.6754 30.8208 0.2497
v  -23.7591 30.8208 0.1797
v  -40.9997 30.8208 17.8868
v  -41.1379 30.8208 -0.8629
v  -22.1749 30.8208 17.7954
v  -22.3132 30.8208 -0.9542
v  -39.9231 30.8208 0.3342
v  -39.8026 30.8208 16.6719
v  -23.3898 30.8208 16.5983
v  -23.5103 30.8208 0.2606
# 196 vertices

vn 0.7905 -0.0000 -0.6125
vn 0.5333 -0.0000 -0.8459
vn 0.2118 -0.0000 -0.9773
vn -0.1352 0.0000 -0.9908
vn -0.1352 -0.0000 -0.9908
vn -0.4659 -0.0000 -0.8848
vn -0.4659 0.0000 -0.8848
vn -0.7405 -0.0000 -0.6721
vn -0.9257 -0.0000 -0.3783
vn -0.9257 0.0000 -0.3783
vn -0.9992 -0.0000 -0.0389
vn -0.9992 0.0000 -0.0389
vn -0.9523 -0.0000 0.3052
vn -0.7905 -0.0000 0.6125
vn -0.5333 0.0000 0.8459
vn -0.5333 -0.0000 0.8459
vn -0.2118 0.0000 0.9773
vn 0.1352 0.0000 0.9908
vn 0.4659 0.0000 0.8848
vn 0.7405 0.0000 0.6721
vn 0.9257 0.0000 0.3783
vn 0.9992 0.0000 0.0389
vn 0.9523 -0.0000 -0.3052
vn 0.0000 -1.0000 -0.0000
vn 0.0000 1.0000 0.0000
vn 0.0000 -1.0000 0.0000
vn 0.0000 -0.0000 1.0000
vn 0.0000 0.2310 0.9729
vn 0.0000 0.0000 -1.0000
vn 0.0000 0.2310 -0.9729
vn -1.0000 0.0000 -0.0000
vn -1.0000 -0.0000 0.0000
vn -1.0000 0.0000 0.0000
vn 1.0000 0.0000 -0.0000
vn 0.0000 0.9865 0.1635
vn -1.0000 -0.0000 -0.0000
vn 0.0000 1.0000 -0.0000
vn 0.0000 0.9865 -0.1635
vn 1.0000 -0.0000 -0.0000
vn 1.0000 -0.0000 0.0000
vn 0.0000 0.6243 0.7812
vn 0.0000 0.8734 0.4869
vn 0.0000 0.6243 -0.7812
vn 0.0000 0.8734 -0.4869
vn -0.7405 0.0000 -0.6721
vn -0.9523 0.0000 0.3052
vn -0.7905 0.0000 0.6125
vn 0.9992 -0.0000 0.0389
vn -0.0000 -0.0000 1.0000
vn -0.0000 0.2310 0.9729
vn 1.0000 0.0000 0.0000
vn -0.0000 -1.0000 0.0000
vn -0.0000 1.0000 -0.0000
vn -0.0000 0.9865 -0.1635
vn -0.0000 0.6243 0.7812
vn -0.0000 0.8734 0.4869
vn 0.0000 -0.0000 -1.0000
vn -0.0000 0.7071 0.7071
vn 0.0000 0.7071 0.7071
vn -0.9882 0.0000 -0.1529
vn -0.9859 -0.0000 0.1675
vn -0.1542 -0.0000 0.9880
vn 0.1662 -0.0000 0.9861
vn 0.9882 -0.0000 0.1529
vn 0.9859 0.0000 -0.1675
vn 0.1542 0.0000 -0.9880
vn -0.1662 0.0000 -0.9861
vn 0.1544 0.0000 -0.9880
vn -0.1660 0.0000 -0.9861
vn -0.1544 -0.0000 0.9880
vn 0.1660 -0.0000 0.9861
vn -0.9463 -0.0000 0.3232
vn -0.9510 0.0000 -0.3092
vn 0.3232 -0.0000 0.9463
vn 0.9463 0.0000 -0.3232
vn -0.3232 0.0000 -0.9463
vn -0.3092 -0.0000 0.9510
vn 0.9510 -0.0000 0.3092
vn 0.3092 0.0000 -0.9510
# 79 vertex normals

vt 0.7215 0.1842 1.3225
vt 0.7246 0.1842 1.3225
vt 0.7246 0.3472 1.3225
vt 0.7215 0.3472 1.3225
vt 0.7277 0.1842 1.3225
vt 0.7277 0.3472 1.3225
vt 0.7308 0.1842 1.3225
vt 0.7308 0.3472 1.3225
vt 0.7339 0.1842 1.3225
vt 0.7339 0.3472 1.3225
vt 0.7370 0.1842 1.3225
vt 0.7370 0.3472 1.3225
vt 0.7400 0.1842 1.3225
vt 0.7400 0.3472 1.3225
vt 0.7431 0.1842 1.3225
vt 0.7431 0.3472 1.3225
vt 0.7462 0.1842 1.3225
vt 0.7462 0.3472 1.3225
vt 0.7493 0.1842 1.3225
vt 0.7493 0.3472 1.3225
vt 0.7524 0.1842 1.3225
vt 0.7524 0.3472 1.3225
vt 0.7555 0.1842 1.3225
vt 0.7555 0.3472 1.3225
vt 0.7586 0.1842 1.3225
vt 0.7586 0.3472 1.3225
vt 0.7616 0.1842 1.3225
vt 0.7616 0.3472 1.3225
vt 0.7647 0.1842 1.3225
vt 0.7647 0.3472 1.3225
vt 0.7678 0.1842 1.3225
vt 0.7678 0.3472 1.3225
vt 0.7709 0.1842 1.3225
vt 0.7709 0.3472 1.3225
vt 0.7740 0.1842 1.3225
vt 0.7740 0.3472 1.3225
vt 0.7185 0.1842 1.3225
vt 0.7185 0.3472 1.3225
vt 0.5396 0.0988 -0.2500
vt 0.5403 0.0979 -0.2500
vt 0.5407 0.0968 -0.2500
vt 0.5375 0.0996 -0.2500
vt 0.5407 0.0956 -0.2500
vt 0.5403 0.0945 -0.2500
vt 0.5386 0.0931 -0.2500
vt 0.5396 0.0937 -0.2500
vt 0.5375 0.0929 -0.2500
vt 0.5363 0.0931 -0.2500
vt 0.5346 0.0945 -0.2500
vt 0.5353 0.0937 -0.2500
vt 0.5342 0.0956 -0.2500
vt 0.5342 0.0968 -0.2500
vt 0.5353 0.0988 -0.2500
vt 0.5346 0.0979 -0.2500
vt 0.5363 0.0994 -0.2500
vt 0.5386 0.0994 -0.2500
vt 0.5363 0.0994 0.2500
vt 0.5353 0.0988 0.2500
vt 0.5346 0.0979 0.2500
vt 0.5386 0.0994 0.2500
vt 0.5342 0.0968 0.2500
vt 0.5342 0.0956 0.2500
vt 0.5353 0.0937 0.2500
vt 0.5346 0.0945 0.2500
vt 0.5363 0.0931 0.2500
vt 0.5375 0.0929 0.2500
vt 0.5396 0.0937 0.2500
vt 0.5386 0.0931 0.2500
vt 0.5403 0.0945 0.2500
vt 0.5407 0.0956 0.2500
vt 0.5403 0.0979 0.2500
vt 0.5407 0.0968 0.2500
vt 0.5396 0.0988 0.2500
vt 0.5375 0.0996 0.2500
vt 0.5341 0.0929 0.0000
vt 0.5341 0.0996 0.0000
vt 0.5408 0.0996 0.0000
vt 0.5408 0.0929 0.0000
vt 0.3698 0.0737 0.0000
vt 0.3961 0.0737 0.0000
vt 0.5408 0.0991 0.0000
vt 0.5341 0.0991 0.0000
vt 0.6277 0.0868 0.0000
vt 0.6562 0.0868 0.0000
vt 0.6562 0.1047 0.0000
vt 0.6277 0.1047 0.0000
vt 0.4946 0.1102 0.0000
vt 0.5275 0.1102 0.0000
vt 0.5343 0.1079 0.0000
vt 0.5424 0.0979 0.0000
vt 0.5396 0.1035 0.0000
vt 0.4946 0.0923 0.0000
vt 0.5424 0.0923 0.0000
vt 0.3961 0.1215 0.0000
vt 0.3698 0.1215 0.0000
vt 0.3698 0.0886 0.0000
vt 0.3961 0.0886 0.0000
vt 0.7040 0.0868 0.0000
vt 0.6891 0.1047 0.0000
vt 0.7040 0.0924 0.0000
vt 0.7012 0.0980 0.0000
vt 0.6959 0.1024 0.0000
vt 0.5948 0.1047 0.0000
vt 0.5880 0.1024 0.0000
vt 0.5799 0.0924 0.0000
vt 0.5827 0.0980 0.0000
vt 0.5799 0.0868 0.0000
vt 0.3698 0.1501 0.0000
vt 0.3961 0.1501 0.0000
vt 0.3961 0.1829 0.0000
vt 0.3698 0.1829 0.0000
vt 0.4660 0.1102 0.0000
vt 0.4660 0.0923 0.0000
vt 0.4183 0.0923 0.0000
vt 0.4332 0.1102 0.0000
vt 0.4183 0.0979 0.0000
vt 0.4211 0.1035 0.0000
vt 0.4264 0.1079 0.0000
vt 0.3961 0.0765 0.0000
vt 0.3961 0.0818 0.0000
vt 0.3698 0.0818 0.0000
vt 0.3698 0.0765 0.0000
vt 0.5408 0.0990 0.0000
vt 0.5408 0.0989 0.0000
vt 0.5341 0.0989 0.0000
vt 0.5341 0.0990 0.0000
vt 0.5408 0.0988 0.0000
vt 0.5341 0.0988 0.0000
vt 0.7965 0.2125 1.3225
vt 0.7996 0.2125 1.3225
vt 0.7996 0.3755 1.3225
vt 0.7965 0.3755 1.3225
vt 0.8027 0.2125 1.3225
vt 0.8027 0.3755 1.3225
vt 0.8057 0.2125 1.3225
vt 0.8057 0.3755 1.3225
vt 0.8088 0.2125 1.3225
vt 0.8088 0.3755 1.3225
vt 0.8119 0.2125 1.3225
vt 0.8119 0.3755 1.3225
vt 0.8150 0.2125 1.3225
vt 0.8150 0.3755 1.3225
vt 0.8181 0.2125 1.3225
vt 0.8181 0.3755 1.3225
vt 0.8212 0.2125 1.3225
vt 0.8212 0.3755 1.3225
vt 0.8242 0.2125 1.3225
vt 0.8242 0.3755 1.3224
vt 0.8273 0.2125 1.3225
vt 0.8273 0.3755 1.3225
vt 0.8304 0.2125 1.3225
vt 0.8304 0.3755 1.3225
vt 0.8335 0.2125 1.3225
vt 0.8335 0.3755 1.3225
vt 0.8366 0.2125 1.3225
vt 0.8366 0.3755 1.3225
vt 0.8397 0.2125 1.3225
vt 0.8397 0.3755 1.3225
vt 0.8428 0.2125 1.3225
vt 0.8428 0.3755 1.3225
vt 0.8458 0.2125 1.3225
vt 0.8458 0.3755 1.3225
vt 0.8489 0.2125 1.3225
vt 0.8489 0.3755 1.3225
vt 0.7934 0.2125 1.3225
vt 0.7934 0.3755 1.3225
vt 0.8091 0.0737 0.0000
vt 0.8354 0.0737 0.0000
vt 0.8354 0.1979 0.0000
vt 0.8091 0.1979 0.0000
vt 0.8354 0.1215 0.0000
vt 0.8091 0.1215 0.0000
vt 0.8091 0.0886 0.0000
vt 0.8354 0.0886 0.0000
vt 0.8091 0.1501 0.0000
vt 0.8354 0.1501 0.0000
vt 0.8354 0.1829 0.0000
vt 0.8091 0.1829 0.0000
vt 0.8354 0.0765 0.0000
vt 0.8354 0.0818 0.0000
vt 0.8091 0.0818 0.0000
vt 0.8091 0.0765 0.0000
vt 0.8091 0.1951 0.0000
vt 0.8091 0.1897 0.0000
vt 0.8354 0.1897 0.0000
vt 0.8354 0.1951 0.0000
vt 0.0202 0.6864 0.0000
vt 0.6902 0.6864 0.0000
vt 0.6902 0.5216 0.0000
vt 0.0202 0.5216 0.0000
vt 0.6862 0.2250 0.0000
vt 0.6862 0.4007 0.0000
vt 0.0162 0.4007 0.0000
vt 0.0162 0.2250 0.0000
vt 0.0184 0.2001 0.0000
vt 0.6885 0.2001 0.0000
vt 0.6885 0.2093 0.0000
vt 0.0184 0.2093 0.0000
vt 0.1954 0.1579 0.0000
vt 0.3581 0.1579 0.0000
vt 0.3649 0.1512 0.0000
vt 0.2123 0.1427 0.0000
vt 0.3649 0.1427 0.0000
vt 0.6877 0.4324 0.0000
vt 0.0176 0.4324 0.0000
vt 0.0176 0.4488 0.0000
vt 0.6877 0.4488 0.0000
vt 0.2146 0.0806 0.0000
vt 0.1978 0.0958 0.0000
vt 0.1716 0.0958 0.0000
vt 0.1716 0.0806 0.0000
vt 0.0202 0.7329 0.0000
vt 0.6902 0.7329 0.0000
vt 0.0193 0.4845 0.0000
vt 0.6893 0.4845 0.0000
vt 0.6893 0.5031 0.0000
vt 0.0193 0.5031 0.0000
vt 0.1692 0.1427 0.0000
vt 0.1692 0.1579 0.0000
vt 0.3672 0.0806 0.0000
vt 0.3672 0.0891 0.0000
vt 0.3605 0.0958 0.0000
vt 0.0176 0.4818 0.0000
vt 0.6877 0.4818 0.0000
vt 0.1978 0.1174 0.0000
vt 0.1888 0.1264 0.0000
vt 0.1716 0.1264 0.0000
vt 0.0191 0.4062 0.0000
vt 0.6892 0.4062 0.0000
vt 0.6892 0.4295 0.0000
vt 0.0191 0.4295 0.0000
vt 0.1692 0.1885 0.0000
vt 0.1954 0.1795 0.0000
vt 0.1864 0.1885 0.0000
vt 0.0176 0.2204 0.0000
vt 0.0176 0.2131 0.0000
vt 0.6876 0.2131 0.0000
vt 0.6876 0.2204 0.0000
vt 0.6900 0.5058 0.0000
vt 0.6900 0.5155 0.0000
vt 0.0199 0.5155 0.0000
vt 0.0199 0.5058 0.0000
vt 0.5408 0.0931 0.0000
vt 0.5408 0.0994 0.0000
vt 0.5408 0.0995 0.0000
vt 0.5407 0.0996 0.0000
vt 0.5342 0.0996 0.0000
vt 0.5341 0.0995 0.0000
vt 0.5341 0.0994 0.0000
vt 0.5342 0.0929 0.0000
vt 0.5341 0.0931 0.0000
vt 0.5407 0.0929 0.0000
vt 0.7047 0.5444 0.0000
vt 0.7057 0.4122 0.0000
vt 0.7064 0.4101 0.0000
vt 0.7084 0.4094 0.0000
vt 0.8413 0.4100 0.0000
vt 0.8434 0.4107 0.0000
vt 0.8441 0.4128 0.0000
vt 0.8403 0.5478 0.0000
vt 0.8431 0.5451 0.0000
vt 0.8424 0.5471 0.0000
vt 0.7054 0.5465 0.0000
vt 0.7074 0.5472 0.0000
vt 0.2319 0.0103 13.1868
vt 0.4356 0.0103 13.1539
vt 0.4356 0.0422 13.1539
vt 0.2319 0.0422 13.1868
vt 0.4403 0.0103 13.1524
vt 0.6450 0.0103 13.1864
vt 0.6450 0.0422 13.1864
vt 0.4403 0.0422 13.1524
vt 0.6498 0.0103 13.1868
vt 0.8534 0.0103 13.1539
vt 0.8534 0.0422 13.1539
vt 0.6498 0.0422 13.1868
vt 0.0224 0.0103 13.1524
vt 0.2272 0.0103 13.1864
vt 0.2272 0.0422 13.1864
vt 0.0224 0.0422 13.1524
vt 0.6945 0.5544 0.0000
vt 0.6957 0.4020 0.0000
vt 0.6984 0.3993 0.0000
vt 0.8515 0.4000 0.0000
vt 0.8542 0.4028 0.0000
vt 0.8531 0.5552 0.0000
vt 0.8503 0.5579 0.0000
vt 0.6973 0.5572 0.0000
vt 0.2083 0.0672 11.4815
vt 0.3851 0.0672 11.4488
vt 0.3851 0.0482 11.4488
vt 0.2083 0.0482 11.4815
vt 0.3899 0.0672 11.4470
vt 0.5678 0.0672 11.4811
vt 0.5678 0.0482 11.4811
vt 0.3899 0.0482 11.4470
vt 0.5726 0.0672 11.4815
vt 0.7494 0.0672 11.4488
vt 0.7494 0.0482 11.4488
vt 0.5726 0.0482 11.4815
vt 0.0256 0.0672 11.4470
vt 0.2035 0.0672 11.4811
vt 0.2035 0.0482 11.4811
vt 0.0256 0.0482 11.4470
vt 0.4379 0.0422 13.2681
vt 0.4379 0.0103 13.2681
vt 0.2295 0.0103 13.3015
vt 0.2295 0.0422 13.3015
vt 0.6474 0.0422 13.3015
vt 0.6474 0.0103 13.3015
vt 0.0200 0.0422 13.2681
vt 0.0177 0.0422 13.1539
vt 0.0177 0.0103 13.1539
vt 0.0200 0.0103 13.2681
vt 0.6952 0.5565 0.0000
vt 0.6964 0.3999 0.0000
vt 0.8536 0.4007 0.0000
vt 0.8524 0.5573 0.0000
vt 0.2059 0.0482 11.5960
vt 0.2059 0.0672 11.5960
vt 0.3875 0.0482 11.5626
vt 0.3875 0.0672 11.5626
vt 0.5702 0.0482 11.5960
vt 0.5702 0.0672 11.5960
vt 0.0232 0.0482 11.5626
vt 0.0208 0.0482 11.4488
vt 0.0208 0.0672 11.4488
vt 0.0232 0.0672 11.5626
# 328 texture coords

g Object003
usemtl wire_135006006
s 1
f 1/1/1 2/2/2 3/3/2 4/4/1 
f 2/2/2 5/5/3 6/6/3 3/3/2 
f 5/5/3 7/7/4 8/8/5 6/6/3 
f 7/7/4 9/9/6 10/10/7 8/8/5 
f 9/9/6 11/11/8 12/12/8 10/10/7 
f 11/11/8 13/13/9 14/14/10 12/12/8 
f 13/13/9 15/15/11 16/16/12 14/14/10 
f 15/15/11 17/17/13 18/18/13 16/16/12 
f 17/17/13 19/19/14 20/20/14 18/18/13 
f 19/19/14 21/21/15 22/22/16 20/20/14 
f 21/21/15 23/23/17 24/24/17 22/22/16 
f 23/23/17 25/25/18 26/26/18 24/24/17 
f 25/25/18 27/27/19 28/28/19 26/26/18 
f 27/27/19 29/29/20 30/30/20 28/28/19 
f 29/29/20 31/31/21 32/32/21 30/30/20 
f 31/31/21 33/33/22 34/34/22 32/32/21 
f 33/33/22 35/35/23 36/36/23 34/34/22 
f 35/37/23 1/1/1 4/4/1 36/38/23 
s 2
f 33/39/24 31/40/24 29/41/24 1/42/24 
f 29/41/24 27/43/24 25/44/24 21/45/24 
f 25/44/24 23/46/24 21/45/24 
f 21/45/24 19/47/24 17/48/24 13/49/24 
f 17/48/24 15/50/24 13/49/24 
f 13/49/24 11/51/24 9/52/24 5/53/24 
f 9/52/24 7/54/24 5/53/24 
f 21/45/24 13/49/24 5/53/24 29/41/24 
f 5/53/24 2/55/24 1/42/24 29/41/24 
f 35/56/24 33/39/24 1/42/24 
f 3/57/25 6/58/25 8/59/25 36/60/25 
f 8/59/25 10/61/25 12/62/25 16/63/25 
f 12/62/25 14/64/25 16/63/25 
f 16/63/25 18/65/25 20/66/25 24/67/25 
f 20/66/25 22/68/25 24/67/25 
f 24/67/25 26/69/25 28/70/25 32/71/25 
f 28/70/25 30/72/25 32/71/25 
f 16/63/25 24/67/25 32/71/25 8/59/25 
f 32/71/25 34/73/25 36/60/25 8/59/25 
f 4/74/25 3/57/25 36/60/25 
s 1
f 37/75/24 38/76/26 39/77/26 40/78/24 
s 2
f 41/79/27 42/80/27 43/80/28 44/79/28 
f 45/76/29 46/77/29 47/81/30 48/82/30 
s 4
f 38/83/31 37/84/32 49/85/33 50/86/31 
s 1
f 37/76/24 40/77/24 42/77/24 41/76/24 
s 4
f 51/87/34 52/88/34 53/89/34 43/90/34 
f 53/89/34 54/91/34 43/90/34 
f 40/92/34 51/87/34 43/90/34 42/93/34 
s 2
f 51/94/25 49/95/25 55/96/35 52/97/35 
s 4
f 49/85/33 37/84/32 41/98/32 55/99/33 
f 41/98/32 44/100/32 56/101/36 55/99/33 
f 56/101/36 57/102/33 55/99/33 
s 1
f 39/76/26 38/77/26 46/77/26 45/76/26 
s 4
f 50/86/31 58/103/32 59/104/32 47/105/33 
f 59/104/32 60/106/31 47/105/33 
f 38/83/31 50/86/31 47/105/33 46/107/31 
s 2
f 50/108/37 61/109/37 62/110/38 58/111/38 
s 4
f 61/112/34 39/113/39 45/114/39 62/115/40 
f 45/114/39 48/116/34 63/117/40 62/115/40 
f 63/117/40 64/118/40 62/115/40 
s 2
f 54/119/41 53/120/42 57/121/42 56/122/41 
f 60/123/43 59/124/44 64/125/44 63/126/43 
f 43/80/28 54/119/41 56/122/41 44/79/28 
f 47/81/30 60/123/43 63/126/43 48/82/30 
f 53/120/42 52/97/35 55/96/35 57/121/42 
f 59/124/44 58/127/38 62/128/38 64/125/44 
f 61/109/37 50/108/37 49/95/25 51/94/25 
s 1
f 65/129/1 66/130/2 67/131/2 68/132/1 
f 66/130/2 69/133/3 70/134/3 67/131/2 
f 69/133/3 71/135/5 72/136/4 70/134/3 
f 71/135/5 73/137/6 74/138/7 72/136/4 
f 73/137/6 75/139/8 76/140/45 74/138/7 
f 75/139/8 77/141/9 78/142/9 76/140/45 
f 77/141/9 79/143/11 80/144/11 78/142/9 
f 79/143/11 81/145/46 82/146/46 80/144/11 
f 81/145/46 83/147/47 84/148/47 82/146/46 
f 83/147/47 85/149/15 86/150/15 84/148/47 
f 85/149/15 87/151/17 88/152/17 86/150/15 
f 87/151/17 89/153/18 90/154/18 88/152/17 
f 89/153/18 91/155/19 92/156/19 90/154/18 
f 91/155/19 93/157/20 94/158/20 92/156/19 
f 93/157/20 95/159/21 96/160/21 94/158/20 
f 95/159/21 97/161/48 98/162/22 96/160/21 
f 97/161/48 99/163/23 100/164/23 98/162/22 
f 99/165/23 65/129/1 68/132/1 100/166/23 
s 2
f 97/39/24 95/40/24 93/41/24 65/42/24 
f 93/41/24 91/43/24 89/44/24 85/45/24 
f 89/44/24 87/46/24 85/45/24 
f 85/45/24 83/47/24 81/48/24 77/49/24 
f 81/48/24 79/50/24 77/49/24 
f 77/49/24 75/51/24 73/52/24 69/53/24 
f 73/52/24 71/54/24 69/53/24 
f 85/45/24 77/49/24 69/53/24 93/41/24 
f 69/53/24 66/55/24 65/42/24 93/41/24 
f 99/56/24 97/39/24 65/42/24 
f 67/57/25 70/58/25 72/59/25 100/60/25 
f 72/59/25 74/61/25 76/62/25 80/63/25 
f 76/62/25 78/64/25 80/63/25 
f 80/63/25 82/65/25 84/66/25 88/67/25 
f 84/66/25 86/68/25 88/67/25 
f 88/67/25 90/69/25 92/70/25 96/71/25 
f 92/70/25 94/72/25 96/71/25 
f 80/63/25 88/67/25 96/71/25 72/59/25 
f 96/71/25 98/73/25 100/60/25 72/59/25 
f 68/74/25 67/57/25 100/60/25 
s 1
f 101/75/24 102/76/26 103/77/26 104/78/24 
s 2
f 105/167/49 106/168/49 107/168/50 108/167/50 
s 4
f 104/76/40 103/77/34 109/127/34 110/128/51 
s 2
f 111/169/29 112/170/29 113/170/30 114/169/30 
s 1
f 101/76/24 104/77/24 106/77/24 105/76/24 
s 4
f 110/127/51 115/127/51 116/124/51 107/81/51 
f 116/124/51 117/123/34 107/81/51 
f 104/77/40 110/127/51 107/81/51 106/77/40 
s 2
f 110/171/25 118/172/25 119/173/35 115/174/35 
s 4
f 118/128/31 101/76/31 105/76/31 119/128/31 
f 105/76/31 108/82/31 120/126/31 119/128/31 
f 120/126/31 121/125/31 119/128/31 
s 1
f 103/76/26 102/77/26 112/77/52 111/76/52 
s 4
f 122/127/31 123/127/31 124/124/31 113/81/31 
f 124/124/31 125/123/31 113/81/31 
f 102/77/31 122/127/31 113/81/31 112/77/31 
s 2
f 122/175/53 109/176/53 126/177/54 123/178/38 
s 4
f 109/128/34 103/76/34 111/76/34 126/128/39 
f 111/76/34 114/82/34 127/126/40 126/128/39 
f 127/126/40 128/125/40 126/128/39 
s 2
f 117/179/55 116/180/42 121/181/56 120/182/55 
f 125/183/43 124/184/44 128/185/44 127/186/43 
f 107/168/50 117/179/55 120/182/55 108/167/50 
f 113/170/30 125/183/43 127/186/43 114/169/30 
f 116/180/42 115/174/35 119/173/35 121/181/56 
f 124/184/44 123/178/38 126/177/54 128/185/44 
f 109/176/53 122/175/53 118/172/25 110/171/25 
s 8
f 39/76/57 61/128/57 122/127/57 102/77/57 
s 2
f 61/109/37 51/94/25 118/172/25 122/175/53 
s 8
f 51/127/27 40/77/27 101/76/27 118/128/27 
s 1
f 40/78/24 39/77/26 102/76/26 101/75/24 
f 129/187/52 130/188/52 131/189/52 132/190/52 
f 133/191/37 134/192/37 135/193/37 136/194/37 
s 2
f 132/195/49 131/196/49 137/197/49 138/198/49 
s 4
f 134/199/51 133/200/39 137/201/34 130/202/34 
f 131/203/34 130/202/34 137/201/34 
s 2
f 139/204/29 140/205/29 141/206/57 142/207/57 
s 4
f 129/208/36 135/209/36 141/210/36 140/211/31 
s 1
f 140/212/24 139/213/24 130/188/52 129/187/52 
f 143/214/25 144/215/25 145/216/25 146/217/25 
s 4
f 139/218/51 142/219/51 134/199/51 130/202/34 
f 132/220/32 138/221/31 136/222/33 135/209/36 
f 129/208/36 132/220/32 135/209/36 
s 2
f 142/207/57 141/206/57 144/223/57 143/224/57 
s 4
f 135/209/36 147/225/31 145/226/31 141/210/36 
f 141/210/36 145/226/31 144/227/31 
s 2
f 135/228/27 134/229/27 148/230/27 147/231/27 
s 4
f 134/199/51 142/219/51 143/232/40 148/233/40 
f 143/232/40 146/234/39 148/233/40 
s 8
f 136/235/58 138/236/58 137/237/58 133/238/58 
f 145/239/59 147/240/59 148/241/59 146/242/59 
s 1
f 149/243/24 150/244/24 151/245/24 152/246/24 
f 152/246/24 153/247/24 154/248/24 155/249/24 
f 149/243/24 152/246/24 155/249/24 156/250/24 
f 155/249/24 157/251/24 158/75/24 156/250/24 
f 159/78/24 149/243/24 156/250/24 160/252/24 
f 161/253/25 162/254/25 163/255/25 164/256/25 
f 164/256/25 165/257/25 166/258/25 167/259/25 
f 161/253/25 164/256/25 167/259/25 168/260/25 
f 167/259/25 169/261/25 170/262/25 168/260/25 
f 171/263/25 161/253/25 168/260/25 172/264/25 
s 2
f 160/265/60 156/266/61 173/267/61 174/268/60 
s 4
f 157/269/62 155/270/63 175/271/63 176/272/62 
s 2
f 153/273/64 152/274/65 177/275/65 178/276/64 
s 4
f 150/277/66 149/278/67 179/279/67 180/280/66 
s 1
f 174/281/25 173/282/25 181/254/25 182/253/25 
f 176/283/25 175/284/25 183/257/25 184/256/25 
f 178/285/25 177/286/25 185/261/25 186/259/25 
f 180/287/25 179/288/25 187/264/25 188/260/25 
s 2
f 182/289/64 181/290/65 162/291/65 161/292/64 
s 4
f 184/293/68 183/294/69 165/295/69 164/296/68 
s 2
f 186/297/60 185/298/61 169/299/61 167/300/60 
s 4
f 188/301/70 187/302/71 172/303/71 168/304/70 
s 2
f 189/305/72 173/267/61 156/266/61 158/306/72 
f 159/307/73 160/265/60 174/268/60 190/308/73 
s 4
f 191/309/74 175/271/63 155/270/63 154/310/74 
s 2
f 192/311/75 177/312/65 152/313/65 151/314/75 
s 1
f 193/263/25 187/264/25 179/288/25 190/315/25 
f 194/255/25 181/254/25 173/282/25 189/316/25 
f 195/258/25 183/257/25 175/284/25 191/317/25 
f 196/262/25 185/261/25 177/286/25 192/318/25 
s 4
f 171/319/74 172/303/71 187/302/71 193/320/74 
s 2
f 163/321/75 162/291/65 181/290/65 194/322/75 
s 4
f 166/323/76 165/295/69 183/294/69 195/324/76 
s 2
f 170/325/72 169/326/61 185/327/61 196/328/72 
s 4
f 176/272/62 189/305/77 158/306/77 157/269/62 
f 149/278/67 159/307/76 190/308/76 179/279/67 
s 2
f 178/276/64 191/309/78 154/310/78 153/273/64 
s 4
f 180/280/66 192/311/79 151/314/79 150/277/66 
s 1
f 182/253/25 193/263/25 190/315/25 174/281/25 
f 184/256/25 194/255/25 189/316/25 176/283/25 
f 186/259/25 195/258/25 191/317/25 178/285/25 
f 188/260/25 196/262/25 192/318/25 180/287/25 
s 2
f 161/292/64 171/319/78 193/320/78 182/289/64 
s 4
f 164/296/68 163/321/79 194/322/79 184/293/68 
s 2
f 167/300/60 166/323/73 195/324/73 186/297/60 
s 4
f 168/304/70 170/325/77 196/328/77 188/301/70 
# 172 polygons - 28 triangles

