# 3ds Max Wavefront OBJ Exporter v0.97b - (c)2007 guruware
# File Created: 02.05.2016 21:25:07

mtllib tube.mtl

#
# object Cylinder002
#

v  17.1023 0.0000 0.6440
v  16.1119 0.0000 -4.9730
v  16.1119 151.9163 -4.9730
v  17.1023 151.9163 0.6440
v  13.2601 0.0000 -9.9125
v  13.2601 151.9163 -9.9125
v  8.8908 0.0000 -13.5788
v  8.8908 151.9163 -13.5788
v  3.5311 0.0000 -15.5296
v  3.5311 151.9163 -15.5296
v  -2.1726 0.0000 -15.5296
v  -2.1726 151.9163 -15.5296
v  -7.5323 0.0000 -13.5788
v  -7.5323 151.9163 -13.5788
v  -11.9016 0.0000 -9.9125
v  -11.9016 151.9163 -9.9125
v  -14.7535 0.0000 -4.9730
v  -14.7535 151.9163 -4.9730
v  -15.7439 0.0000 0.6440
v  -15.7439 151.9163 0.6440
v  -14.7535 0.0000 6.2611
v  -14.7535 151.9163 6.2611
v  -11.9016 0.0000 11.2006
v  -11.9016 151.9163 11.2006
v  -7.5323 0.0000 14.8669
v  -7.5323 151.9163 14.8669
v  -2.1726 0.0000 16.8177
v  -2.1726 151.9163 16.8177
v  3.5311 0.0000 16.8177
v  3.5311 151.9163 16.8177
v  8.8908 0.0000 14.8669
v  8.8908 151.9163 14.8669
v  13.2600 0.0000 11.2006
v  13.2600 151.9163 11.2006
v  16.1119 0.0000 6.2611
v  16.1119 151.9163 6.2611
v  14.0136 39.2321 -4.2093
v  11.5495 39.2321 -8.4772
v  7.7743 39.2321 -11.6450
v  14.0136 39.2321 5.4974
v  3.1433 39.2321 -13.3305
v  -1.7849 39.2321 -13.3305
v  -10.1910 39.2321 -8.4772
v  -6.4158 39.2321 -11.6450
v  -12.6551 39.2321 -4.2093
v  -13.5109 39.2321 0.6440
v  -10.1910 39.2321 9.7653
v  -12.6551 39.2321 5.4973
v  -6.4158 39.2321 12.9330
v  -1.7849 39.2321 14.6186
v  7.7743 39.2321 12.9330
v  3.1433 39.2321 14.6186
v  11.5495 39.2321 9.7653
v  14.8693 39.2321 0.6440
v  20.6698 153.4039 0.6440
v  19.4642 153.4039 -6.1932
v  19.4642 158.5681 -6.1932
v  20.6698 158.5681 0.6440
v  15.9929 153.4039 -12.2057
v  15.9929 158.5681 -12.2057
v  10.6745 153.4039 -16.6683
v  10.6745 158.5681 -16.6683
v  4.1505 153.4039 -19.0428
v  4.1505 158.5681 -19.0428
v  -2.7921 153.4039 -19.0428
v  -2.7921 158.5681 -19.0428
v  -9.3161 153.4039 -16.6683
v  -9.3161 158.5681 -16.6683
v  -14.6344 153.4039 -12.2057
v  -14.6344 158.5681 -12.2057
v  -18.1058 153.4039 -6.1931
v  -18.1058 158.5681 -6.1931
v  -19.3114 153.4039 0.6440
v  -19.3114 158.5681 0.6440
v  -18.1058 153.4039 7.4812
v  -18.1058 158.5681 7.4812
v  -14.6345 153.4039 13.4937
v  -14.6345 158.5681 13.4937
v  -9.3161 153.4039 17.9564
v  -9.3161 158.5681 17.9564
v  -2.7921 153.4039 20.3309
v  -2.7921 158.5681 20.3309
v  4.1505 153.4039 20.3309
v  4.1505 158.5681 20.3309
v  10.6746 153.4039 17.9564
v  10.6746 158.5681 17.9564
v  15.9928 153.4039 13.4938
v  15.9928 158.5681 13.4938
v  19.4642 153.4039 7.4812
v  19.4642 158.5681 7.4812
v  18.0664 151.9163 -5.6844
v  19.1822 151.9163 0.6440
v  14.8534 151.9163 -11.2495
v  9.9307 151.9163 -15.3800
v  3.8922 151.9163 -17.5779
v  -2.5338 151.9163 -17.5779
v  -8.5723 151.9163 -15.3800
v  -13.4949 151.9163 -11.2495
v  -16.7080 151.9163 -5.6843
v  -17.8238 151.9163 0.6440
v  -16.7079 151.9163 6.9724
v  -13.4949 151.9163 12.5376
v  -8.5723 151.9163 16.6681
v  -2.5338 151.9163 18.8660
v  3.8922 151.9163 18.8660
v  9.9308 151.9163 16.6681
v  14.8533 151.9163 12.5376
v  18.0664 151.9163 6.9725
v  16.1119 160.0556 -4.9730
v  17.1023 160.0556 0.6440
v  19.1822 160.0556 0.6440
v  18.0664 160.0556 -5.6844
v  16.1119 160.0556 6.2611
v  18.0664 160.0556 6.9725
v  13.2600 160.0556 11.2006
v  14.8533 160.0556 12.5376
v  8.8908 160.0556 14.8669
v  9.9308 160.0556 16.6681
v  3.5311 160.0556 16.8177
v  3.8922 160.0556 18.8660
v  -2.1726 160.0556 16.8177
v  -2.5338 160.0556 18.8660
v  -7.5323 160.0556 14.8669
v  -8.5723 160.0556 16.6681
v  -11.9016 160.0556 11.2006
v  -13.4949 160.0556 12.5376
v  -14.7535 160.0556 6.2611
v  -16.7079 160.0556 6.9724
v  -15.7439 160.0556 0.6440
v  -17.8238 160.0556 0.6440
v  -14.7535 160.0556 -4.9730
v  -16.7080 160.0556 -5.6843
v  -11.9016 160.0556 -9.9125
v  -13.4949 160.0556 -11.2495
v  -7.5323 160.0556 -13.5788
v  -8.5723 160.0556 -15.3800
v  -2.1726 160.0556 -15.5296
v  -2.5338 160.0556 -17.5779
v  3.5311 160.0556 -15.5296
v  3.8922 160.0556 -17.5779
v  8.8908 160.0556 -13.5788
v  9.9307 160.0556 -15.3800
v  13.2601 160.0556 -9.9125
v  14.8534 160.0556 -11.2495
v  14.6509 160.0556 -4.4412
v  15.5475 160.0556 0.6440
v  12.0690 160.0556 -8.9131
v  8.1134 160.0556 -12.2323
v  3.2611 160.0556 -13.9984
v  -1.9026 160.0556 -13.9984
v  -6.7550 160.0556 -12.2323
v  -10.7106 160.0556 -8.9131
v  -13.2924 160.0556 -4.4412
v  -14.1891 160.0556 0.6440
v  -13.2924 160.0556 5.7293
v  -10.7106 160.0556 10.2012
v  -6.7550 160.0556 13.5204
v  -1.9026 160.0556 15.2865
v  3.2611 160.0556 15.2865
v  8.1134 160.0556 13.5204
v  12.0690 160.0556 10.2012
v  14.6509 160.0556 5.7293
v  14.8693 159.3774 0.6440
v  14.0136 159.3774 -4.2093
v  11.5495 159.3774 -8.4772
v  7.7743 159.3774 -11.6450
v  3.1433 159.3774 -13.3305
v  -1.7849 159.3774 -13.3305
v  -6.4158 159.3774 -11.6450
v  -10.1910 159.3774 -8.4772
v  -12.6551 159.3774 -4.2093
v  -13.5109 159.3774 0.6440
v  -12.6551 159.3774 5.4973
v  -10.1910 159.3774 9.7653
v  -6.4158 159.3774 12.9330
v  -1.7849 159.3774 14.6186
v  3.1433 159.3774 14.6186
v  7.7743 159.3774 12.9330
v  11.5495 159.3774 9.7653
v  14.0136 159.3774 5.4974
# 180 vertices

vn 1.0000 0.0000 0.0000
vn 0.9397 0.0000 -0.3420
vn 0.7660 0.0000 -0.6428
vn 0.5000 0.0000 -0.8660
vn 0.1736 0.0000 -0.9848
vn -0.1736 0.0000 -0.9848
vn -0.5000 0.0000 -0.8660
vn -0.7660 0.0000 -0.6428
vn -0.9397 0.0000 -0.3420
vn -1.0000 0.0000 -0.0000
vn -0.9397 0.0000 0.3420
vn -0.7660 0.0000 0.6428
vn -0.5000 0.0000 0.8660
vn -0.1736 0.0000 0.9848
vn 0.1736 0.0000 0.9848
vn 0.5000 0.0000 0.8660
vn 0.7660 0.0000 0.6428
vn 0.9397 0.0000 0.3420
vn 0.0000 -1.0000 -0.0000
vn 0.0000 1.0000 -0.0000
vn 1.0000 0.0000 -0.0000
vn -1.0000 0.0000 0.0000
vn 0.7071 -0.7071 -0.0000
vn 0.6645 -0.7071 -0.2418
vn 0.5417 -0.7071 -0.4545
vn 0.3536 -0.7071 -0.6124
vn 0.1228 -0.7071 -0.6964
vn -0.1228 -0.7071 -0.6964
vn -0.3536 -0.7071 -0.6124
vn -0.5417 -0.7071 -0.4545
vn -0.6645 -0.7071 -0.2418
vn -0.7071 -0.7071 0.0000
vn -0.6645 -0.7071 0.2418
vn -0.5417 -0.7071 0.4545
vn -0.3536 -0.7071 0.6124
vn -0.1228 -0.7071 0.6964
vn 0.1228 -0.7071 0.6964
vn 0.3536 -0.7071 0.6124
vn 0.5417 -0.7071 0.4545
vn 0.6645 -0.7071 0.2418
vn 0.6645 0.7071 -0.2418
vn 0.7071 0.7071 -0.0000
vn 0.6645 0.7071 0.2418
vn 0.5417 0.7071 0.4545
vn 0.3536 0.7071 0.6124
vn 0.1228 0.7071 0.6964
vn -0.1228 0.7071 0.6964
vn -0.3536 0.7071 0.6124
vn -0.5417 0.7071 0.4545
vn -0.6645 0.7071 0.2418
vn -0.7071 0.7071 0.0000
vn -0.6645 0.7071 -0.2418
vn -0.5417 0.7071 -0.4545
vn -0.3536 0.7071 -0.6124
vn -0.1228 0.7071 -0.6964
vn 0.1228 0.7071 -0.6964
vn 0.3536 0.7071 -0.6124
vn 0.5417 0.7071 -0.4545
vn -0.9397 -0.0000 0.3420
vn -1.0000 -0.0000 -0.0000
vn -0.1736 -0.0000 0.9848
vn -0.1736 -0.0000 -0.9848
vn -0.5000 -0.0000 -0.8660
vn -0.7071 0.7071 -0.0000
vn 0.7071 0.7071 0.0000
# 65 vertex normals

vt 0.0068 0.0177 16.4231
vt 0.0381 0.0177 16.4231
vt 0.0381 0.6986 16.4231
vt 0.0068 0.6986 16.4231
vt 0.0694 0.0177 16.4231
vt 0.0694 0.6986 16.4231
vt 0.1006 0.0177 16.4231
vt 0.1006 0.6986 16.4231
vt 0.1319 0.0177 16.4231
vt 0.1319 0.6986 16.4231
vt 0.1632 0.0177 16.4231
vt 0.1632 0.6986 16.4231
vt 0.1945 0.0177 16.4231
vt 0.1945 0.6986 16.4231
vt 0.2257 0.0177 16.4231
vt 0.2257 0.6986 16.4231
vt 0.2570 0.0177 16.4231
vt 0.2570 0.6986 16.4231
vt 0.2883 0.0177 16.4231
vt 0.2883 0.6986 16.4231
vt 0.3195 0.0177 16.4231
vt 0.3195 0.6986 16.4231
vt 0.3508 0.0177 16.4231
vt 0.3508 0.6986 16.4231
vt 0.3821 0.0177 16.4231
vt 0.3821 0.6986 16.4231
vt 0.4134 0.0177 16.4231
vt 0.4134 0.6986 16.4231
vt 0.4446 0.0177 16.4231
vt 0.4446 0.6986 16.4231
vt 0.4759 0.0177 16.4231
vt 0.4759 0.6986 16.4231
vt 0.5072 0.0177 16.4231
vt 0.5072 0.6986 16.4231
vt 0.5385 0.0177 16.4231
vt 0.5385 0.6986 16.4231
vt 0.5697 0.0177 16.4231
vt 0.5697 0.6986 16.4231
vt 0.9296 0.6076 0.0000
vt 0.9100 0.5912 0.0000
vt 0.8860 0.5824 0.0000
vt 0.9468 0.6549 0.0000
vt 0.8604 0.5824 0.0000
vt 0.8364 0.5912 0.0000
vt 0.8041 0.6297 0.0000
vt 0.8168 0.6076 0.0000
vt 0.7996 0.6549 0.0000
vt 0.8041 0.6801 0.0000
vt 0.8364 0.7187 0.0000
vt 0.8168 0.7022 0.0000
vt 0.8604 0.7274 0.0000
vt 0.8860 0.7274 0.0000
vt 0.9296 0.7022 0.0000
vt 0.9100 0.7187 0.0000
vt 0.9424 0.6801 0.0000
vt 0.9424 0.6297 0.0000
vt 0.7619 0.6785 0.0000
vt 0.7508 0.6976 0.0000
vt 0.7339 0.7118 0.0000
vt 0.7619 0.6350 0.0000
vt 0.7132 0.7194 0.0000
vt 0.6911 0.7194 0.0000
vt 0.6534 0.6976 0.0000
vt 0.6703 0.7118 0.0000
vt 0.6424 0.6785 0.0000
vt 0.6385 0.6567 0.0000
vt 0.6534 0.6159 0.0000
vt 0.6424 0.6350 0.0000
vt 0.6703 0.6017 0.0000
vt 0.6911 0.5941 0.0000
vt 0.7339 0.6017 0.0000
vt 0.7132 0.5941 0.0000
vt 0.7508 0.6159 0.0000
vt 0.7657 0.6567 0.0000
vt 0.0068 0.7052 19.9906
vt 0.0381 0.7052 19.9906
vt 0.0381 0.7284 19.9906
vt 0.0068 0.7284 19.9906
vt 0.0694 0.7052 19.9906
vt 0.0694 0.7284 19.9906
vt 0.1006 0.7052 19.9906
vt 0.1006 0.7284 19.9906
vt 0.1319 0.7052 19.9906
vt 0.1319 0.7284 19.9906
vt 0.1632 0.7052 19.9906
vt 0.1632 0.7284 19.9906
vt 0.1945 0.7052 19.9906
vt 0.1945 0.7284 19.9906
vt 0.2257 0.7052 19.9906
vt 0.2257 0.7284 19.9906
vt 0.2570 0.7052 19.9906
vt 0.2570 0.7284 19.9906
vt 0.2883 0.7052 19.9906
vt 0.2883 0.7284 19.9906
vt 0.3195 0.7052 19.9906
vt 0.3195 0.7284 19.9906
vt 0.3508 0.7052 19.9906
vt 0.3508 0.7284 19.9906
vt 0.3821 0.7052 19.9906
vt 0.3821 0.7284 19.9906
vt 0.4134 0.7052 19.9906
vt 0.4134 0.7284 19.9906
vt 0.4446 0.7052 19.9906
vt 0.4446 0.7284 19.9906
vt 0.4759 0.7052 19.9906
vt 0.4759 0.7284 19.9906
vt 0.5072 0.7052 19.9906
vt 0.5072 0.7284 19.9906
vt 0.5385 0.7052 19.9906
vt 0.5385 0.7284 19.9906
vt 0.5697 0.7052 19.9906
vt 0.5697 0.7284 19.9906
vt 0.0381 0.6986 18.5030
vt 0.0068 0.6986 18.5030
vt 0.0694 0.6986 18.5030
vt 0.1006 0.6986 18.5030
vt 0.1319 0.6986 18.5030
vt 0.1632 0.6986 18.5030
vt 0.1945 0.6986 18.5030
vt 0.2257 0.6986 18.5030
vt 0.2570 0.6986 18.5030
vt 0.2883 0.6986 18.5030
vt 0.3195 0.6986 18.5030
vt 0.3508 0.6986 18.5030
vt 0.3821 0.6986 18.5030
vt 0.4134 0.6986 18.5030
vt 0.4446 0.6986 18.5030
vt 0.4759 0.6986 18.5030
vt 0.5072 0.6986 18.5030
vt 0.5385 0.6986 18.5030
vt 0.5697 0.6986 18.5030
vt 0.7713 0.6819 0.0000
vt 0.7757 0.6567 0.0000
vt 0.7850 0.6567 0.0000
vt 0.7800 0.6851 0.0000
vt 0.7713 0.6316 0.0000
vt 0.7800 0.6284 0.0000
vt 0.7585 0.6094 0.0000
vt 0.7656 0.6034 0.0000
vt 0.7389 0.5930 0.0000
vt 0.7436 0.5849 0.0000
vt 0.7149 0.5843 0.0000
vt 0.7165 0.5751 0.0000
vt 0.6893 0.5843 0.0000
vt 0.6877 0.5751 0.0000
vt 0.6653 0.5930 0.0000
vt 0.6607 0.5849 0.0000
vt 0.6457 0.6094 0.0000
vt 0.6386 0.6034 0.0000
vt 0.6330 0.6316 0.0000
vt 0.6242 0.6284 0.0000
vt 0.6285 0.6567 0.0000
vt 0.6192 0.6567 0.0000
vt 0.6330 0.6819 0.0000
vt 0.6242 0.6851 0.0000
vt 0.6457 0.7041 0.0000
vt 0.6386 0.7100 0.0000
vt 0.6653 0.7205 0.0000
vt 0.6607 0.7286 0.0000
vt 0.6893 0.7292 0.0000
vt 0.6877 0.7384 0.0000
vt 0.7149 0.7292 0.0000
vt 0.7165 0.7384 0.0000
vt 0.7389 0.7205 0.0000
vt 0.7436 0.7286 0.0000
vt 0.7585 0.7041 0.0000
vt 0.7656 0.7100 0.0000
vt 0.0381 0.7350 18.5030
vt 0.0068 0.7350 18.5030
vt 0.5697 0.7350 18.5030
vt 0.5385 0.7350 18.5030
vt 0.5072 0.7350 18.5030
vt 0.4759 0.7350 18.5030
vt 0.4446 0.7350 18.5030
vt 0.4134 0.7350 18.5030
vt 0.3821 0.7350 18.5030
vt 0.3508 0.7350 18.5030
vt 0.3195 0.7350 18.5030
vt 0.2883 0.7350 18.5030
vt 0.2570 0.7350 18.5030
vt 0.2257 0.7350 18.5030
vt 0.1945 0.7350 18.5030
vt 0.1632 0.7350 18.5030
vt 0.1319 0.7350 18.5030
vt 0.1006 0.7350 18.5030
vt 0.0694 0.7350 18.5030
vt 0.7647 0.6795 0.0000
vt 0.7688 0.6567 0.0000
vt 0.7532 0.6996 0.0000
vt 0.7354 0.7145 0.0000
vt 0.7137 0.7224 0.0000
vt 0.6905 0.7224 0.0000
vt 0.6688 0.7145 0.0000
vt 0.6511 0.6996 0.0000
vt 0.6395 0.6795 0.0000
vt 0.6355 0.6567 0.0000
vt 0.6395 0.6340 0.0000
vt 0.6511 0.6139 0.0000
vt 0.6688 0.5990 0.0000
vt 0.6905 0.5911 0.0000
vt 0.7137 0.5911 0.0000
vt 0.7354 0.5990 0.0000
vt 0.7532 0.6139 0.0000
vt 0.7647 0.6340 0.0000
vt 0.5816 0.5663 14.1901
vt 0.6038 0.5663 14.1901
vt 0.6038 0.0279 14.1901
vt 0.5816 0.0279 14.1901
vt 0.6260 0.5663 14.1901
vt 0.6260 0.0279 14.1901
vt 0.6482 0.5663 14.1901
vt 0.6482 0.0279 14.1901
vt 0.6704 0.5663 14.1901
vt 0.6704 0.0279 14.1901
vt 0.6926 0.5663 14.1901
vt 0.6926 0.0279 14.1901
vt 0.7148 0.5663 14.1901
vt 0.7148 0.0279 14.1901
vt 0.7370 0.5663 14.1901
vt 0.7370 0.0279 14.1901
vt 0.7592 0.5663 14.1901
vt 0.7592 0.0279 14.1901
vt 0.7814 0.5663 14.1901
vt 0.7814 0.0279 14.1901
vt 0.8036 0.5663 14.1901
vt 0.8036 0.0279 14.1901
vt 0.8258 0.5663 14.1901
vt 0.8258 0.0279 14.1901
vt 0.8480 0.5663 14.1901
vt 0.8480 0.0279 14.1901
vt 0.8702 0.5663 14.1901
vt 0.8702 0.0279 14.1901
vt 0.8924 0.5663 14.1901
vt 0.8924 0.0279 14.1901
vt 0.9146 0.5663 14.1901
vt 0.9146 0.0279 14.1901
vt 0.9368 0.5663 14.1901
vt 0.9368 0.0279 14.1901
vt 0.9590 0.5663 14.1901
vt 0.9590 0.0279 14.1901
vt 0.9812 0.5663 14.1901
vt 0.9812 0.0279 14.1901
# 242 texture coords

g Cylinder002
usemtl wire_228214153
s 1
f 1/1/1 2/2/2 3/3/2 4/4/1 
f 2/2/2 5/5/3 6/6/3 3/3/2 
f 5/5/3 7/7/4 8/8/4 6/6/3 
f 7/7/4 9/9/5 10/10/5 8/8/4 
f 9/9/5 11/11/6 12/12/6 10/10/5 
f 11/11/6 13/13/7 14/14/7 12/12/6 
f 13/13/7 15/15/8 16/16/8 14/14/7 
f 15/15/8 17/17/9 18/18/9 16/16/8 
f 17/17/9 19/19/10 20/20/10 18/18/9 
f 19/19/10 21/21/11 22/22/11 20/20/10 
f 21/21/11 23/23/12 24/24/12 22/22/11 
f 23/23/12 25/25/13 26/26/13 24/24/12 
f 25/25/13 27/27/14 28/28/14 26/26/13 
f 27/27/14 29/29/15 30/30/15 28/28/14 
f 29/29/15 31/31/16 32/32/16 30/30/15 
f 31/31/16 33/33/17 34/34/17 32/32/16 
f 33/33/17 35/35/18 36/36/18 34/34/17 
f 35/35/18 1/37/1 4/38/1 36/36/18 
s 2
f 33/39/19 31/40/19 29/41/19 1/42/19 
f 29/41/19 27/43/19 25/44/19 21/45/19 
f 25/44/19 23/46/19 21/45/19 
f 21/45/19 19/47/19 17/48/19 13/49/19 
f 17/48/19 15/50/19 13/49/19 
f 13/49/19 11/51/19 9/52/19 5/53/19 
f 9/52/19 7/54/19 5/53/19 
f 21/45/19 13/49/19 5/53/19 29/41/19 
f 5/53/19 2/55/19 1/42/19 29/41/19 
f 35/56/19 33/39/19 1/42/19 
s 1
f 37/57/20 38/58/20 39/59/20 40/60/20 
f 39/59/20 41/61/20 42/62/20 43/63/20 
f 42/62/20 44/64/20 43/63/20 
f 43/63/20 45/65/20 46/66/20 47/67/20 
f 46/66/20 48/68/20 47/67/20 
f 47/67/20 49/69/20 50/70/20 51/71/20 
f 50/70/20 52/72/20 51/71/20 
f 43/63/20 47/67/20 51/71/20 39/59/20 
f 51/71/20 53/73/20 40/60/20 39/59/20 
f 54/74/20 37/57/20 40/60/20 
f 55/75/21 56/76/2 57/77/2 58/78/21 
f 56/76/2 59/79/3 60/80/3 57/77/2 
f 59/79/3 61/81/4 62/82/4 60/80/3 
f 61/81/4 63/83/5 64/84/5 62/82/4 
f 63/83/5 65/85/6 66/86/6 64/84/5 
f 65/85/6 67/87/7 68/88/7 66/86/6 
f 67/87/7 69/89/8 70/90/8 68/88/7 
f 69/89/8 71/91/9 72/92/9 70/90/8 
f 71/91/9 73/93/22 74/94/22 72/92/9 
f 73/93/22 75/95/11 76/96/11 74/94/22 
f 75/95/11 77/97/12 78/98/12 76/96/11 
f 77/97/12 79/99/13 80/100/13 78/98/12 
f 79/99/13 81/101/14 82/102/14 80/100/13 
f 81/101/14 83/103/15 84/104/15 82/102/14 
f 83/103/15 85/105/16 86/106/16 84/104/15 
f 85/105/16 87/107/17 88/108/17 86/106/16 
f 87/107/17 89/109/18 90/110/18 88/108/17 
f 89/109/18 55/111/21 58/112/21 90/110/18 
s 2
f 4/4/19 3/3/19 91/113/19 92/114/19 
f 3/3/19 6/6/19 93/115/19 91/113/19 
f 6/6/19 8/8/19 94/116/19 93/115/19 
f 8/8/19 10/10/19 95/117/19 94/116/19 
f 10/10/19 12/12/19 96/118/19 95/117/19 
f 12/12/19 14/14/19 97/119/19 96/118/19 
f 14/14/19 16/16/19 98/120/19 97/119/19 
f 16/16/19 18/18/19 99/121/19 98/120/19 
f 18/18/19 20/20/19 100/122/19 99/121/19 
f 20/20/19 22/22/19 101/123/19 100/122/19 
f 22/22/19 24/24/19 102/124/19 101/123/19 
f 24/24/19 26/26/19 103/125/19 102/124/19 
f 26/26/19 28/28/19 104/126/19 103/125/19 
f 28/28/19 30/30/19 105/127/19 104/126/19 
f 30/30/19 32/32/19 106/128/19 105/127/19 
f 32/32/19 34/34/19 107/129/19 106/128/19 
f 34/34/19 36/36/19 108/130/19 107/129/19 
f 36/36/19 4/38/19 92/131/19 108/130/19 
s 1
f 109/132/20 110/133/20 111/134/20 112/135/20 
f 110/133/20 113/136/20 114/137/20 111/134/20 
f 113/136/20 115/138/20 116/139/20 114/137/20 
f 115/138/20 117/140/20 118/141/20 116/139/20 
f 117/140/20 119/142/20 120/143/20 118/141/20 
f 119/142/20 121/144/20 122/145/20 120/143/20 
f 121/144/20 123/146/20 124/147/20 122/145/20 
f 123/146/20 125/148/20 126/149/20 124/147/20 
f 125/148/20 127/150/20 128/151/20 126/149/20 
f 127/150/20 129/152/20 130/153/20 128/151/20 
f 129/152/20 131/154/20 132/155/20 130/153/20 
f 131/154/20 133/156/20 134/157/20 132/155/20 
f 133/156/20 135/158/20 136/159/20 134/157/20 
f 135/158/20 137/160/20 138/161/20 136/159/20 
f 137/160/20 139/162/20 140/163/20 138/161/20 
f 139/162/20 141/164/20 142/165/20 140/163/20 
f 141/164/20 143/166/20 144/167/20 142/165/20 
f 143/166/20 109/132/20 112/135/20 144/167/20 
s 4
f 55/75/23 92/114/23 91/113/24 56/76/24 
f 56/76/24 91/113/24 93/115/25 59/79/25 
f 59/79/25 93/115/25 94/116/26 61/81/26 
f 61/81/26 94/116/26 95/117/27 63/83/27 
f 63/83/27 95/117/27 96/118/28 65/85/28 
f 65/85/28 96/118/28 97/119/29 67/87/29 
f 67/87/29 97/119/29 98/120/30 69/89/30 
f 69/89/30 98/120/30 99/121/31 71/91/31 
f 71/91/31 99/121/31 100/122/32 73/93/32 
f 73/93/32 100/122/32 101/123/33 75/95/33 
f 75/95/33 101/123/33 102/124/34 77/97/34 
f 77/97/34 102/124/34 103/125/35 79/99/35 
f 79/99/35 103/125/35 104/126/36 81/101/36 
f 81/101/36 104/126/36 105/127/37 83/103/37 
f 83/103/37 105/127/37 106/128/38 85/105/38 
f 85/105/38 106/128/38 107/129/39 87/107/39 
f 87/107/39 107/129/39 108/130/40 89/109/40 
f 89/109/40 108/130/40 92/131/23 55/111/23 
s 2
f 57/77/41 112/168/41 111/169/42 58/78/42 
f 58/112/42 111/170/42 114/171/43 90/110/43 
f 90/110/43 114/171/43 116/172/44 88/108/44 
f 88/108/44 116/172/44 118/173/45 86/106/45 
f 86/106/45 118/173/45 120/174/46 84/104/46 
f 84/104/46 120/174/46 122/175/47 82/102/47 
f 82/102/47 122/175/47 124/176/48 80/100/48 
f 80/100/48 124/176/48 126/177/49 78/98/49 
f 78/98/49 126/177/49 128/178/50 76/96/50 
f 76/96/50 128/178/50 130/179/51 74/94/51 
f 74/94/51 130/179/51 132/180/52 72/92/52 
f 72/92/52 132/180/52 134/181/53 70/90/53 
f 70/90/53 134/181/53 136/182/54 68/88/54 
f 68/88/54 136/182/54 138/183/55 66/86/55 
f 66/86/55 138/183/55 140/184/56 64/84/56 
f 64/84/56 140/184/56 142/185/57 62/82/57 
f 62/82/57 142/185/57 144/186/58 60/80/58 
f 60/80/58 144/186/58 112/168/41 57/77/41 
s 1
f 110/133/20 109/132/20 145/187/20 146/188/20 
f 109/132/20 143/166/20 147/189/20 145/187/20 
f 143/166/20 141/164/20 148/190/20 147/189/20 
f 141/164/20 139/162/20 149/191/20 148/190/20 
f 139/162/20 137/160/20 150/192/20 149/191/20 
f 137/160/20 135/158/20 151/193/20 150/192/20 
f 135/158/20 133/156/20 152/194/20 151/193/20 
f 133/156/20 131/154/20 153/195/20 152/194/20 
f 131/154/20 129/152/20 154/196/20 153/195/20 
f 129/152/20 127/150/20 155/197/20 154/196/20 
f 127/150/20 125/148/20 156/198/20 155/197/20 
f 125/148/20 123/146/20 157/199/20 156/198/20 
f 123/146/20 121/144/20 158/200/20 157/199/20 
f 121/144/20 119/142/20 159/201/20 158/200/20 
f 119/142/20 117/140/20 160/202/20 159/201/20 
f 117/140/20 115/138/20 161/203/20 160/202/20 
f 115/138/20 113/136/20 162/204/20 161/203/20 
f 113/136/20 110/133/20 146/188/20 162/204/20 
s 2
f 163/205/10 164/206/11 37/207/59 54/208/60 
f 164/206/11 165/209/12 38/210/12 37/207/59 
f 165/209/12 166/211/13 39/212/13 38/210/12 
f 166/211/13 167/213/61 41/214/14 39/212/13 
f 167/213/61 168/215/15 42/216/15 41/214/14 
f 168/215/15 169/217/16 44/218/16 42/216/15 
f 169/217/16 170/219/17 43/220/17 44/218/16 
f 170/219/17 171/221/18 45/222/18 43/220/17 
f 171/221/18 172/223/1 46/224/1 45/222/18 
f 172/223/1 173/225/2 48/226/2 46/224/1 
f 173/225/2 174/227/3 47/228/3 48/226/2 
f 174/227/3 175/229/4 49/230/4 47/228/3 
f 175/229/4 176/231/5 50/232/5 49/230/4 
f 176/231/5 177/233/62 52/234/62 50/232/5 
f 177/233/62 178/235/7 51/236/63 52/234/62 
f 178/235/7 179/237/8 53/238/8 51/236/63 
f 179/237/8 180/239/9 40/240/9 53/238/8 
f 180/239/9 163/241/10 54/242/60 40/240/9 
s 4
f 163/74/64 146/188/64 145/187/50 164/57/50 
f 164/57/50 145/187/50 147/189/49 165/58/49 
f 165/58/49 147/189/49 148/190/48 166/59/48 
f 166/59/48 148/190/48 149/191/47 167/61/47 
f 167/61/47 149/191/47 150/192/46 168/62/46 
f 168/62/46 150/192/46 151/193/45 169/64/45 
f 169/64/45 151/193/45 152/194/44 170/63/44 
f 170/63/44 152/194/44 153/195/43 171/65/43 
f 171/65/43 153/195/43 154/196/65 172/66/65 
f 172/66/65 154/196/65 155/197/41 173/68/41 
f 173/68/41 155/197/41 156/198/58 174/67/58 
f 174/67/58 156/198/58 157/199/57 175/69/57 
f 175/69/57 157/199/57 158/200/56 176/70/56 
f 176/70/56 158/200/56 159/201/55 177/72/55 
f 177/72/55 159/201/55 160/202/54 178/71/54 
f 178/71/54 160/202/54 161/203/53 179/73/53 
f 179/73/53 161/203/53 162/204/52 180/60/52 
f 180/60/52 162/204/52 146/188/64 163/74/64 
# 174 polygons - 8 triangles

